<svg xmlns="http://www.w3.org/2000/svg" width="224.499" height="248.182" viewBox="0 0 224.499 248.182">
  <g id="Group_11" data-name="Group 11" transform="translate(-553.932 -726.144)">
    <g id="Group_9" data-name="Group 9" transform="translate(-180.117 -39.673)">
      <path id="Path_6" data-name="Path 6" d="M824.633,978.95V968.933s-.4-15.333,5.733-23.6c9.2-11.333,12.667-15.133,13.3-26.467s0-50.267,0-50.267-.767-11.35-13.3-9.55c-10.467,1.4-9.6,12.483-9.6,12.483V902.25" transform="translate(113 3)" fill="none" stroke="#052e4f" stroke-width="3"/>
      <path id="Path_7" data-name="Path 7" d="M791.8,940.3s18.6-15.425,28.6-24.4c1.4-1.325,6.25-8.225,0-15.8-8.05-7.025-15.2-1.225-15.2-1.225s-20.5,16.1-32,27.25c-3.2,4.45-6.3,6.6-8.6,19.7-.3,10.9,0,32.2,0,32.2" transform="translate(113 4)" fill="none" stroke="#052e4f" stroke-width="3"/>
      <g id="Rectangle_12" data-name="Rectangle 12" transform="translate(866 979)" fill="none" stroke="#052e4f" stroke-width="3">
        <rect width="86" height="35" rx="4" stroke="none"/>
        <rect x="1.5" y="1.5" width="83" height="32" rx="2.5" fill="none"/>
      </g>
      <path id="Path_8" data-name="Path 8" d="M904.325,943.3s-.65,1.85,1.388,1.662" fill="none" stroke="#052e4f" stroke-width="1"/>
    </g>
    <g id="Group_10" data-name="Group 10" transform="translate(-310.533 -39.673)">
      <path id="Path_6-2" data-name="Path 6" d="M839.976,978.95V968.933s.4-15.333-5.707-23.6C825.111,934,821.66,930.2,821.029,918.867s0-50.267,0-50.267.763-11.35,13.239-9.55c10.419,1.4,9.556,12.483,9.556,12.483V902.25" transform="translate(45.251 3)" fill="none" stroke="#052e4f" stroke-width="3"/>
      <path id="Path_7-2" data-name="Path 7" d="M796.038,940.3s-18.515-15.425-28.47-24.4c-1.394-1.325-6.221-8.225,0-15.8,8.013-7.025,15.131-1.225,15.131-1.225s20.406,16.1,31.854,27.25c3.185,4.45,6.271,6.6,8.561,19.7.3,10.9,0,32.2,0,32.2" transform="translate(122.289 4)" fill="none" stroke="#052e4f" stroke-width="3"/>
      <g id="Rectangle_12-2" data-name="Rectangle 12" transform="translate(870.533 979)" fill="none" stroke="#052e4f" stroke-width="3">
        <rect width="86.417" height="35" rx="4" stroke="none"/>
        <rect x="1.5" y="1.5" width="83.417" height="32" rx="2.5" fill="none"/>
      </g>
      <path id="Path_8-2" data-name="Path 8" d="M905.608,943.3s.647,1.85-1.381,1.662" transform="translate(13.014)" fill="none" stroke="#052e4f" stroke-width="1"/>
    </g>
    <path id="Path_10" data-name="Path 10" d="M.441.686a29.216,29.216,0,0,1-12.1-2.4,20.168,20.168,0,0,1-8.379-6.664,17.074,17.074,0,0,1-3.136-9.849h9.506A12.517,12.517,0,0,0-9.7-10.143Q-6.223-6.86.441-6.86q6.37,0,10.045-3.185a10.336,10.336,0,0,0,3.675-8.183,9.288,9.288,0,0,0-2.156-6.37,13.774,13.774,0,0,0-5.39-3.724,84.219,84.219,0,0,0-8.722-2.744,76.813,76.813,0,0,1-10.829-3.528,17.44,17.44,0,0,1-6.958-5.537q-2.891-3.773-2.891-10.143a17.575,17.575,0,0,1,2.842-9.9,18.514,18.514,0,0,1,7.987-6.664A28.121,28.121,0,0,1-.147-69.188q9.6,0,15.729,4.8a17.739,17.739,0,0,1,6.909,12.74h-9.8a10.572,10.572,0,0,0-4.116-6.909q-3.626-2.989-9.6-2.989a13.913,13.913,0,0,0-9.114,2.891,9.871,9.871,0,0,0-3.528,8.085,8.762,8.762,0,0,0,2.107,6.076A13.583,13.583,0,0,0-6.37-40.915Q-3.283-39.69,2.3-38.122a81.458,81.458,0,0,1,10.878,3.675,18.144,18.144,0,0,1,7.056,5.586q2.94,3.773,2.94,10.241a17.983,17.983,0,0,1-2.646,9.408,19.45,19.45,0,0,1-7.84,7.154A25.872,25.872,0,0,1,.441.686Z" transform="translate(666.967 832.144)" fill="#052e4f" stroke="#fff" stroke-width="5"/>
    <path id="s_-_Outline" data-name="s - Outline" d="M.441,1.686A30.34,30.34,0,0,1-12.072-.8a21.245,21.245,0,0,1-8.783-7A18.132,18.132,0,0,1-24.177-18.21l-.018-1.018h11.427l.092.9a11.448,11.448,0,0,0,3.66,7.459c2.117,2,5.3,3.01,9.457,3.01,3.979,0,7.139-.989,9.39-2.941a9.3,9.3,0,0,0,3.33-7.427,8.255,8.255,0,0,0-1.907-5.709,12.847,12.847,0,0,0-5.006-3.454A83.663,83.663,0,0,0-2.363-30.1a78.128,78.128,0,0,1-10.971-3.577,18.507,18.507,0,0,1-7.354-5.846c-2.055-2.682-3.1-6.3-3.1-10.751a18.637,18.637,0,0,1,3.007-10.448,19.582,19.582,0,0,1,8.406-7.023A29.239,29.239,0,0,1-.147-70.188a30.97,30.97,0,0,1,9.026,1.244,22.392,22.392,0,0,1,7.32,3.771,18.781,18.781,0,0,1,7.287,13.429l.108,1.1H11.808l-.109-.876a9.53,9.53,0,0,0-3.76-6.261C5.717-59.615,2.7-60.544-1.029-60.544a13.008,13.008,0,0,0-8.48,2.664,8.846,8.846,0,0,0-3.162,7.312,7.732,7.732,0,0,0,1.852,5.409A12.655,12.655,0,0,0-6-41.844c2.016.8,4.9,1.729,8.574,2.76a82.784,82.784,0,0,1,11.011,3.723,19.216,19.216,0,0,1,7.442,5.887c2.091,2.683,3.151,6.336,3.151,10.856A19.051,19.051,0,0,1,21.388-8.7a20.521,20.521,0,0,1-8.23,7.524A26.974,26.974,0,0,1,.441,1.686ZM-22.132-17.228a15.959,15.959,0,0,0,2.906,8.269,19.275,19.275,0,0,0,7.975,6.332A28.361,28.361,0,0,0,.441-.314,25.007,25.007,0,0,0,12.224-2.942a18.555,18.555,0,0,0,7.45-6.784,17.078,17.078,0,0,0,2.5-8.894c0-4.064-.918-7.3-2.729-9.626a17.238,17.238,0,0,0-6.67-5.285,80.889,80.889,0,0,0-10.74-3.626c-3.745-1.051-6.7-2-8.776-2.828a14.636,14.636,0,0,1-5.57-3.839,9.767,9.767,0,0,1-2.362-6.743,10.868,10.868,0,0,1,3.894-8.858,14.943,14.943,0,0,1,9.748-3.118c4.2,0,7.65,1.082,10.24,3.217a11.846,11.846,0,0,1,4.325,6.681h7.823A16.486,16.486,0,0,0,14.965-63.6C11.081-66.644,6-68.188-.147-68.188A27.263,27.263,0,0,0-11.54-65.927a17.614,17.614,0,0,0-7.568,6.3,16.672,16.672,0,0,0-2.677,9.348c0,4,.9,7.21,2.685,9.535a16.531,16.531,0,0,0,6.562,5.228A76.221,76.221,0,0,0-1.855-32.034l.006,0a85.579,85.579,0,0,1,8.83,2.78,14.827,14.827,0,0,1,5.774,3.994,10.3,10.3,0,0,1,2.405,7.031,11.341,11.341,0,0,1-4.02,8.939C8.515-7.014,4.915-5.86.441-5.86c-4.686,0-8.329-1.2-10.829-3.556a13.483,13.483,0,0,1-4.159-7.812Z" transform="translate(666.967 832.144)" fill="#fff"/>
    <g id="Ellipse_6" data-name="Ellipse 6" transform="translate(594.467 726.144)" fill="none" stroke="#052e4f" stroke-width="3">
      <circle cx="72.5" cy="72.5" r="72.5" stroke="none"/>
      <circle cx="72.5" cy="72.5" r="71" fill="none"/>
    </g>
    <line id="Line_6" data-name="Line 6" y2="85" transform="translate(666.967 756.644)" fill="none" stroke="#052e4f" stroke-width="3"/>
  </g>
</svg>
