<svg xmlns="http://www.w3.org/2000/svg" width="243" height="249" viewBox="0 0 243 249">
  <g id="Group_5" data-name="Group 5" transform="translate(-305 -339)">
    <g id="Group_1" data-name="Group 1" transform="translate(-93 3)">
      <g id="Subtraction_1" data-name="Subtraction 1" transform="translate(469 331)" fill="#fff">
        <path d="M 98.49990844726562 117.4998016357422 L 1.500007510185242 117.4998016357422 L 1.500007510185242 74.99970245361328 C 1.500007510185242 70.31284332275391 5.313050270080566 66.49980163574219 9.999907493591309 66.49980163574219 L 24.42219352722168 66.49980163574219 C 31.59264183044434 72.95293426513672 40.82937622070312 76.49970245361328 50.49990844726562 76.49970245361328 C 60.17042541503906 76.49970245361328 69.40714263916016 72.95293426513672 76.57759094238281 66.49980163574219 L 90.00000762939453 66.49980163574219 C 94.68686676025391 66.49980163574219 98.49990844726562 70.31284332275391 98.49990844726562 74.99970245361328 L 98.49990844726562 117.4998016357422 Z" stroke="none"/>
        <path d="M 96.99990081787109 115.9998016357422 L 96.99990081787109 74.99971008300781 C 96.99990081787109 71.13993835449219 93.85976409912109 67.99980163574219 90 67.99980163574219 L 77.14706420898438 67.99980163574219 C 69.76378631591797 74.45732879638672 60.34843826293945 77.99971008300781 50.49990463256836 77.99971008300781 C 40.65137100219727 77.99971008300781 31.23602104187012 74.45732879638672 23.85272979736328 67.99980163574219 L 9.999904632568359 67.99980163574219 C 6.140134811401367 67.99980163574219 2.999996662139893 71.13993835449219 2.999996662139893 74.99971008300781 L 2.999996662139893 115.9998016357422 L 96.99990081787109 115.9998016357422 M 99.99990081787109 118.9998016357422 L -3.437218310864409e-06 118.9998016357422 L -3.437218310864409e-06 74.99971008300781 C -3.437218310864409e-06 69.48574066162109 4.485935211181641 64.99980163574219 9.999904632568359 64.99980163574219 L 25.00419616699219 64.99980163574219 C 31.95631980895996 71.44843292236328 41.01062774658203 74.99971008300781 50.49990463256836 74.99971008300781 C 59.98904418945312 74.99971008300781 69.0435791015625 71.44834136962891 75.99559783935547 64.99980163574219 L 90 64.99980163574219 C 95.51396942138672 64.99980163574219 99.99990081787109 69.48574066162109 99.99990081787109 74.99971008300781 L 99.99990081787109 118.9998016357422 Z" stroke="none" fill="#052e4f"/>
      </g>
      <g id="Ellipse_2" data-name="Ellipse 2" transform="translate(482 336)" fill="#fff" stroke="#052e4f" stroke-width="3">
        <circle cx="37.5" cy="37.5" r="37.5" stroke="none"/>
        <circle cx="37.5" cy="37.5" r="36" fill="none"/>
      </g>
    </g>
    <g id="Group_2" data-name="Group 2" transform="translate(-164 178)">
      <g id="Subtraction_1-2" data-name="Subtraction 1" transform="translate(469 375)" fill="#fff">
        <path d="M 65.49960327148438 33.50009918212891 L 1.500001668930054 33.50009918212891 L 1.500001668930054 9.999899864196777 C 1.500001668930054 5.313039779663086 5.313041687011719 1.499999642372131 9.99990177154541 1.499999642372131 L 16.1877555847168 1.499999642372131 C 21.0604305267334 5.684010982513428 27.30370140075684 7.981799602508545 33.83460235595703 7.981799602508545 C 40.36594009399414 7.981799602508545 46.60881423950195 5.684501647949219 51.4818229675293 1.499999642372131 L 56.99970245361328 1.499999642372131 C 61.68656158447266 1.499999642372131 65.49960327148438 5.313039779663086 65.49960327148438 9.999899864196777 L 65.49960327148438 33.50009918212891 Z" stroke="none"/>
        <path d="M 63.99960327148438 32.00010681152344 L 63.99960327148438 9.999905586242676 C 63.99960327148438 6.140149593353271 60.85945892333984 3.00000524520874 56.99970245361328 3.00000524520874 L 52.02884674072266 3.00000524520874 C 46.94940948486328 7.188048839569092 40.53440856933594 9.481804847717285 33.83460235595703 9.481804847717285 C 27.13481521606445 9.481804847717285 20.71999168395996 7.188086986541748 15.64072799682617 3.00000524520874 L 9.99990177154541 3.00000524520874 C 6.140146255493164 3.00000524520874 3.000001668930054 6.140149593353271 3.000001668930054 9.999905586242676 L 3.000001668930054 32.00010681152344 L 63.99960327148438 32.00010681152344 M 66.99960327148438 35.00010681152344 L 1.635742137295892e-06 35.00010681152344 L 1.635742137295892e-06 9.999905586242676 C 1.635742137295892e-06 4.485938549041748 4.485946178436279 5.14661996930954e-06 9.99990177154541 5.14661996930954e-06 L 16.75261306762695 5.14661996930954e-06 C 21.41056823730469 4.179938316345215 27.47683525085449 6.481805324554443 33.83460235595703 6.481805324554443 C 40.19226837158203 6.481805324554443 46.2589225769043 4.179849624633789 50.9169921875 5.14661996930954e-06 L 56.99970245361328 5.14661996930954e-06 C 62.51365661621094 5.14661996930954e-06 66.99960327148438 4.485938549041748 66.99960327148438 9.999905586242676 L 66.99960327148438 35.00010681152344 Z" stroke="none" fill="#052e4f"/>
      </g>
      <g id="Ellipse_2-2" data-name="Ellipse 2" transform="translate(479 338)" fill="#fff" stroke="#052e4f" stroke-width="3">
        <ellipse cx="24" cy="24.5" rx="24" ry="24.5" stroke="none"/>
        <ellipse cx="24" cy="24.5" rx="22.5" ry="23" fill="none"/>
      </g>
    </g>
    <g id="Group_3" data-name="Group 3" transform="translate(-75 179)">
      <g id="Subtraction_1-3" data-name="Subtraction 1" transform="translate(469 376)" fill="#fff">
        <path d="M 64.49970245361328 31.4994010925293 L 0.5001007914543152 31.4994010925293 L 0.5001007914543152 8.000101089477539 C 0.5001007914543152 3.313240766525269 4.313140869140625 -0.4997993111610413 9.000000953674316 -0.4997993111610413 L 14.10087871551514 -0.4997993111610413 C 19.14816856384277 4.898731708526611 26.30071640014648 7.981800556182861 33.83460235595703 7.981800556182861 C 41.36852264404297 7.981800556182861 48.52126693725586 4.898712635040283 53.56880569458008 -0.4997993111610413 L 55.99980163574219 -0.4997993111610413 C 60.68666076660156 -0.4997993111610413 64.49970245361328 3.313240766525269 64.49970245361328 8.000101089477539 L 64.49970245361328 31.4994010925293 Z" stroke="none"/>
        <path d="M 62.99970245361328 29.9994010925293 L 62.99970245361328 8.000101089477539 C 62.99970245361328 4.140345096588135 59.85955810546875 1.000200629234314 55.99980163574219 1.000200629234314 L 54.20917510986328 1.000200629234314 C 48.9085578918457 6.407088279724121 41.56072616577148 9.48180103302002 33.83460235595703 9.48180103302002 C 26.10850524902344 9.48180103302002 18.7608642578125 6.407118320465088 13.46049499511719 1.000200629234314 L 9.000000953674316 1.000200629234314 C 5.14024543762207 1.000200629234314 2.00010085105896 4.140345096588135 2.00010085105896 8.000101089477539 L 2.00010085105896 29.9994010925293 L 62.99970245361328 29.9994010925293 M 65.99970245361328 32.9994010925293 L -0.9998992085456848 32.9994010925293 L -0.9998992085456848 8.000101089477539 C -0.9998992085456848 2.48614501953125 3.486045360565186 -1.999799370765686 9.000000953674316 -1.999799370765686 L 14.76341152191162 -1.999799370765686 C 19.54645729064941 3.390500783920288 26.49735641479492 6.481800556182861 33.83460235595703 6.481800556182861 C 41.17174530029297 6.481800556182861 48.12311172485352 3.390367269515991 52.90629959106445 -1.999799370765686 L 55.99980163574219 -1.999799370765686 C 61.51375579833984 -1.999799370765686 65.99970245361328 2.48614501953125 65.99970245361328 8.000101089477539 L 65.99970245361328 32.9994010925293 Z" stroke="none" fill="#052e4f"/>
      </g>
      <g id="Ellipse_2-3" data-name="Ellipse 2" transform="translate(479 338)" fill="#fff" stroke="#052e4f" stroke-width="3">
        <ellipse cx="24" cy="24.5" rx="24" ry="24.5" stroke="none"/>
        <ellipse cx="24" cy="24.5" rx="22.5" ry="23" fill="none"/>
      </g>
    </g>
    <g id="Group_4" data-name="Group 4" transform="translate(12 178)">
      <g id="Subtraction_1-4" data-name="Subtraction 1" transform="translate(469 375)" fill="#fff">
        <path d="M 65.49960327148438 33.50009918212891 L 1.500001668930054 33.50009918212891 L 1.500001668930054 9.999899864196777 C 1.500001668930054 5.313039779663086 5.313041687011719 1.499999642372131 9.99990177154541 1.499999642372131 L 16.1877555847168 1.499999642372131 C 21.0604305267334 5.684010982513428 27.30370140075684 7.981799602508545 33.83460235595703 7.981799602508545 C 40.36594009399414 7.981799602508545 46.60881423950195 5.684501647949219 51.4818229675293 1.499999642372131 L 56.99970245361328 1.499999642372131 C 61.68656158447266 1.499999642372131 65.49960327148438 5.313039779663086 65.49960327148438 9.999899864196777 L 65.49960327148438 33.50009918212891 Z" stroke="none"/>
        <path d="M 63.99960327148438 32.00010681152344 L 63.99960327148438 9.999905586242676 C 63.99960327148438 6.140149593353271 60.85945892333984 3.00000524520874 56.99970245361328 3.00000524520874 L 52.02884674072266 3.00000524520874 C 46.94940948486328 7.188048839569092 40.53440856933594 9.481804847717285 33.83460235595703 9.481804847717285 C 27.13481521606445 9.481804847717285 20.71999168395996 7.188086986541748 15.64072799682617 3.00000524520874 L 9.99990177154541 3.00000524520874 C 6.140146255493164 3.00000524520874 3.000001668930054 6.140149593353271 3.000001668930054 9.999905586242676 L 3.000001668930054 32.00010681152344 L 63.99960327148438 32.00010681152344 M 66.99960327148438 35.00010681152344 L 1.635742137295892e-06 35.00010681152344 L 1.635742137295892e-06 9.999905586242676 C 1.635742137295892e-06 4.485938549041748 4.485946178436279 5.14661996930954e-06 9.99990177154541 5.14661996930954e-06 L 16.75261306762695 5.14661996930954e-06 C 21.41056823730469 4.179938316345215 27.47683525085449 6.481805324554443 33.83460235595703 6.481805324554443 C 40.19226837158203 6.481805324554443 46.2589225769043 4.179849624633789 50.9169921875 5.14661996930954e-06 L 56.99970245361328 5.14661996930954e-06 C 62.51365661621094 5.14661996930954e-06 66.99960327148438 4.485938549041748 66.99960327148438 9.999905586242676 L 66.99960327148438 35.00010681152344 Z" stroke="none" fill="#052e4f"/>
      </g>
      <g id="Path_5" data-name="Path 5" transform="translate(479 338)" fill="#fff">
        <path d="M 24 47.5 C 20.96571922302246 47.5 18.0227108001709 46.89356994628906 15.25271987915039 45.69755172729492 C 12.5744104385376 44.54111862182617 10.16821002960205 42.88475036621094 8.100979804992676 40.77444839477539 C 6.03164005279541 38.6619987487793 4.406869888305664 36.20185089111328 3.27180004119873 33.46234130859375 C 2.096120119094849 30.62480926513672 1.5 27.60943984985352 1.5 24.5 C 1.5 21.39056015014648 2.096120119094849 18.37519073486328 3.27180004119873 15.53765964508057 C 4.406869888305664 12.79815006256104 6.03164005279541 10.33800983428955 8.100979804992676 8.225560188293457 C 10.16821002960205 6.115250110626221 12.5744104385376 4.458879947662354 15.25271987915039 3.302449941635132 C 18.0227108001709 2.106430053710938 20.96571922302246 1.5 24 1.5 C 27.03428077697754 1.5 29.9772891998291 2.106430053710938 32.74728012084961 3.302449941635132 C 35.42559051513672 4.458879947662354 37.83179092407227 6.115250110626221 39.89902114868164 8.225560188293457 C 41.96836090087891 10.33800983428955 43.5931282043457 12.79815006256104 44.72819900512695 15.53765964508057 C 45.90388107299805 18.37519073486328 46.5 21.39056015014648 46.5 24.5 C 46.5 27.60943984985352 45.90388107299805 30.62480926513672 44.72819900512695 33.46234130859375 C 43.5931282043457 36.20185089111328 41.96836090087891 38.6619987487793 39.89902114868164 40.77444839477539 C 37.83179092407227 42.88475036621094 35.42559051513672 44.54111862182617 32.74728012084961 45.69755172729492 C 29.9772891998291 46.89356994628906 27.03428077697754 47.5 24 47.5 Z" stroke="none"/>
        <path d="M 24 3 C 21.17141914367676 3 18.42847061157227 3.565090179443359 15.84732818603516 4.679561614990234 C 13.34859848022461 5.758449554443359 11.10285949707031 7.304660797119141 9.172508239746094 9.275218963623047 C 7.237949371337891 11.25008010864258 5.718910217285156 13.55025100708008 4.657558441162109 16.11182022094727 C 3.55767822265625 18.76639938354492 3 21.58859062194824 3 24.5 C 3 27.41140937805176 3.55767822265625 30.23360061645508 4.657558441162109 32.88816833496094 C 5.718910217285156 35.44974899291992 7.237949371337891 37.74990844726562 9.172508239746094 39.72476959228516 C 11.10285949707031 41.69533920288086 13.34859848022461 43.24155044555664 15.84732818603516 44.32043838500977 C 18.42847061157227 45.43490982055664 21.17141914367676 46 24 46 C 26.82858085632324 46 29.57152938842773 45.43490982055664 32.15267181396484 44.32043838500977 C 34.65139770507812 43.24155044555664 36.89714050292969 41.69533920288086 38.82749176025391 39.72476959228516 C 40.76205062866211 37.74990844726562 42.28108978271484 35.44974899291992 43.34244155883789 32.88816833496094 C 44.44232177734375 30.23360061645508 45 27.41140937805176 45 24.5 C 45 21.58859062194824 44.44232177734375 18.76639938354492 43.34244155883789 16.11182022094727 C 42.28108978271484 13.55025100708008 40.76205062866211 11.25008010864258 38.82749176025391 9.275218963623047 C 36.89714050292969 7.304660797119141 34.65139770507812 5.758449554443359 32.15267181396484 4.679561614990234 C 29.57152938842773 3.565090179443359 26.82858085632324 3 24 3 M 24 0 C 37.25482940673828 0 48 10.96902084350586 48 24.5 C 48 38.03096771240234 37.25482940673828 49 24 49 C 10.74517059326172 49 0 38.03096771240234 0 24.5 C 0 10.96902084350586 10.74517059326172 0 24 0 Z" stroke="none" fill="#052e4f"/>
      </g>
    </g>
    <g id="Rectangle_2" data-name="Rectangle 2" transform="translate(421 455)" fill="#fff" stroke="#052e4f" stroke-width="3">
      <path d="M0,0H10a0,0,0,0,1,0,0V44a5,5,0,0,1-5,5H5a5,5,0,0,1-5-5V0A0,0,0,0,1,0,0Z" stroke="none"/>
      <path d="M1.5,1.5h7a0,0,0,0,1,0,0V44A3.5,3.5,0,0,1,5,47.5H5A3.5,3.5,0,0,1,1.5,44V1.5A0,0,0,0,1,1.5,1.5Z" fill="none"/>
    </g>
    <g id="Rectangle_5" data-name="Rectangle 5" transform="translate(474 474.5) rotate(90)" fill="#fff" stroke="#052e4f" stroke-width="3">
      <path d="M5,0H5a5,5,0,0,1,5,5V138.333a0,0,0,0,1,0,0H0a0,0,0,0,1,0,0V5A5,5,0,0,1,5,0Z" stroke="none"/>
      <path d="M5,1.5H5A3.5,3.5,0,0,1,8.5,5V136.833a0,0,0,0,1,0,0h-7a0,0,0,0,1,0,0V5A3.5,3.5,0,0,1,5,1.5Z" fill="none"/>
    </g>
    <g id="Rectangle_3" data-name="Rectangle 3" transform="translate(333 504) rotate(-90)" fill="#fff" stroke="#052e4f" stroke-width="3">
      <rect width="30" height="10" rx="5" stroke="none"/>
      <rect x="1.5" y="1.5" width="27" height="7" rx="3.5" fill="none"/>
    </g>
    <g id="Rectangle_6" data-name="Rectangle 6" transform="translate(509 504) rotate(-90)" fill="#fff" stroke="#052e4f" stroke-width="3">
      <rect width="30" height="10" rx="5" stroke="none"/>
      <rect x="1.5" y="1.5" width="27" height="7" rx="3.5" fill="none"/>
    </g>
    <g id="Ellipse_3" data-name="Ellipse 3" transform="translate(486 474)" fill="#fff" stroke="#052e4f" stroke-width="3">
      <circle cx="5.5" cy="5.5" r="5.5" stroke="none"/>
      <circle cx="5.5" cy="5.5" r="4" fill="none"/>
    </g>
  </g>
</svg>
