<svg xmlns="http://www.w3.org/2000/svg" width="292.023" height="245.705" viewBox="0 0 292.023 245.705">
  <g id="Group_19" data-name="Group 19" transform="translate(-1058.024 -236.312)">
    <g id="Group_15" data-name="Group 15" transform="translate(1116.074 277.067)">
      <path id="Union_1" data-name="Union 1" d="M7.5,191.224c-3.289.018-8.55-3.475-4.834-7.191,17.784-10.453,24.1-29.261,24.742-31.312-.278-.516-.545-1.074-.8-1.68a67.431,67.431,0,0,1-11-12.932A87.62,87.62,0,0,1,1.875,106.15,88.985,88.985,0,0,1,0,87.963a87.547,87.547,0,0,1,15.021-49.18,88.221,88.221,0,0,1,38.7-31.872,87.847,87.847,0,0,1,83.417,8.109,88.218,88.218,0,0,1,31.872,38.7,87.848,87.848,0,0,1-8.109,83.417,88.22,88.22,0,0,1-38.7,31.872,88.249,88.249,0,0,1-59.372,3.256c-3.647-1.145-6.625-2.2-9.255-3.275l1.8,1.137c-20.045,20.788-42.731,21.093-47.5,21.093Z" transform="translate(0 0)" fill="#fff" stroke="#052e4f" stroke-width="3"/>
      <path id="Path_17" data-name="Path 17" d="M3105.162,360.959s2.582,2.2,2.008,3.538c-.612,1.734-3.6-1.257-3.6-1.257Z" transform="translate(-3077.459 -211.867)" fill="#e10000" stroke="#052e4f" stroke-width="0.15"/>
    </g>
    <g id="Group_17" data-name="Group 17" transform="translate(1059.556 237.893)">
      <path id="Path_18" data-name="Path 18" d="M3077.44,397.1s-21.417-65.781,22.947-112.287c20.5-23.253,59.05-36.409,88.728-35.185,30.6-.612,63.028,21.111,69.759,28.76s47.118,46.812,28.454,115.652c-24.171,63.028-82.915,72.512-82.915,72.512" transform="translate(-3037.521 -231.719)" fill="none" stroke="#052e4f" stroke-width="3"/>
      <g id="Group_18" data-name="Group 18" transform="translate(0 86.4)">
        <path id="Path_19" data-name="Path 19" d="M3085.552,295.419c-2.448-1.53-22.119-3.845-25.441,13.289-.349,21.679,0,51.4,0,51.4s.962,15.735,17.4,14.162c1.723-.083,4.423-.2,5.87-1.8C3075.832,341.252,3078.63,313.738,3085.552,295.419Z" transform="translate(-3044.046 -294.372)" fill="#fff" stroke="#052e4f" stroke-width="3"/>
        <path id="Path_20" data-name="Path 20" d="M3057.884,306.893v43.242s-5,.816-8.056-4.691c-.612-5.813,0-32.84,0-32.84S3053.6,305.771,3057.884,306.893Z" transform="translate(-3049.555 -287.804)" fill="#fff" stroke="#052e4f" stroke-width="3"/>
      </g>
      <g id="Group_16" data-name="Group 16" transform="translate(247.454 87.065)">
        <path id="Path_22" data-name="Path 22" d="M3059.956,295.419c2.448-1.53,22.119-3.845,25.441,13.289.349,21.679,0,51.4,0,51.4s-.962,15.735-17.4,14.162c-1.723-.083-4.423-.2-5.869-1.8C3069.676,341.252,3066.878,313.738,3059.956,295.419Z" transform="translate(-3059.956 -294.372)" fill="#fff" stroke="#052e4f" stroke-width="3"/>
        <path id="Path_23" data-name="Path 23" d="M3049.555,306.893v43.242s5,.816,8.057-4.691c.612-5.813,0-32.84,0-32.84S3053.839,305.771,3049.555,306.893Z" transform="translate(-3016.38 -287.804)" fill="#fff" stroke="#052e4f" stroke-width="3"/>
      </g>
      <path id="Path_21" data-name="Path 21" d="M92.712,22.871a19.488,19.488,0,0,0,.919-8.333c-.81-1.347-4.535-3.909-7.348-5.282C74.87,1.874,58.855.252,48.536.017S20.419,1.874,8.894,8.44C5.62,10.512,1.985,12.505.138,16.57c-.569,2.54.8,6.3.8,6.3S3.958,29.834,9.988,30.8c5.106-.094,5.575-1,10.006-3.283S35.27,21.66,48.536,22.062a69.487,69.487,0,0,1,31.278,7.856C88.784,33.3,92.712,22.871,92.712,22.871Z" transform="translate(105.684 0) rotate(3)" fill="#fff" stroke="#052e4f" stroke-width="3"/>
      <path id="Path_24" data-name="Path 24" d="M3168,388.713c-5.385-1.378-33.533,0-33.533,0s-5.874,1.009-4.651,7.862,5.875,5.813,5.875,5.813H3168s4.651-4.651,4.651-7.343S3171.612,392.23,3168,388.713Z" transform="translate(-3005.592 -159.845)" fill="#fff" stroke="#052e4f" stroke-width="3"/>
    </g>
    <path id="Path_25" data-name="Path 25" d="M-44.6,16.27q8.16-6.554,12.786-10.762a51.877,51.877,0,0,0,7.807-8.8,15.855,15.855,0,0,0,3.18-9.027,9.922,9.922,0,0,0-2.024-6.586q-2.024-2.409-6.522-2.409a8.564,8.564,0,0,0-6.779,2.731,11.386,11.386,0,0,0-2.6,7.293h-5.654q.257-7.2,4.369-11.115a14.736,14.736,0,0,1,10.6-3.919q6.618,0,10.505,3.662t3.887,10.087A19.217,19.217,0,0,1-18.229-2.2a45.491,45.491,0,0,1-7.228,8.867q-4.048,3.823-10.344,8.9h22.1v4.883H-44.6Zm36.238-5.654V6.183L14.186-25.043h7V5.54h6.425v5.076H21.189V20.961H15.407V10.616Zm24.03-29.556L-1.62,5.54H15.664ZM56.271-39.564l-17.6,71.447H32.883L50.424-39.564ZM92.637-20.931,74.775,20.961H68.864L86.983-20.353h-24.8v-5.012H92.637Z" transform="translate(1180.405 367.015)" fill="#052e4f"/>
  </g>
</svg>
