<svg xmlns="http://www.w3.org/2000/svg" width="161.333" height="248" viewBox="0 0 161.333 248">
  <g id="Group_13" data-name="Group 13" transform="translate(-1500.667 -751.5)">
    <g id="Path_11" data-name="Path 11" transform="translate(1483.533 751.5)" fill="none">
      <path d="M97,0c53.572,0,81.467,40.96,81.467,124S150.572,248,97,248,17.133,215.182,17.133,126.733,43.428,0,97,0Z" stroke="none"/>
      <path d="M 96.99998474121094 3 C 90.50399017333984 3 84.38062286376953 3.59033203125 78.79998779296875 4.754562377929688 C 73.20625305175781 5.921493530273438 67.97648620605469 7.703231811523438 63.25588989257812 10.05023193359375 C 58.5130615234375 12.40829467773438 54.12419128417969 15.4168701171875 50.21112060546875 18.99240112304688 C 46.25471496582031 22.60749816894531 42.65109252929688 26.92379760742188 39.50028991699219 31.82139587402344 C 36.30622863769531 36.78627014160156 33.47462463378906 42.507568359375 31.084228515625 48.82640075683594 C 28.66725158691406 55.21543884277344 26.62602233886719 62.41403198242188 25.01722717285156 70.22219848632812 C 23.39729309082031 78.08467102050781 22.1656494140625 86.80870056152344 21.35658264160156 96.15203857421875 C 20.54486083984375 105.5261993408203 20.13328552246094 115.8152313232422 20.13328552246094 126.7333297729492 C 20.13328552246094 137.642822265625 20.54475402832031 147.8514709472656 21.35624694824219 157.0756225585938 C 22.16361999511719 166.2529296875 23.39398193359375 174.7635650634766 25.01321411132812 182.3711242675781 C 26.61552429199219 189.8992004394531 28.65191650390625 196.7937622070312 31.06591796875 202.8634033203125 C 33.44065856933594 208.8343963623047 36.26068115234375 214.2073364257812 39.44769287109375 218.8329620361328 C 42.57272338867188 223.3686370849609 46.160888671875 227.3448333740234 50.112548828125 230.6510925292969 C 53.99952697753906 233.9032592773438 58.38331604003906 236.6282348632812 63.14208984375 238.7503051757812 C 67.84452056884766 240.8472290039062 73.08818817138672 242.4338684082031 78.72748565673828 243.4661254882812 C 84.28765106201172 244.4839324951172 90.43538665771484 245 96.99998474121094 245 C 103.4557571411133 245 109.5936889648438 244.3764038085938 115.2432861328125 243.1464691162109 C 120.8619232177734 241.92333984375 126.1547241210938 240.0659332275391 130.9747619628906 237.6259613037109 C 135.7903900146484 235.1881713867188 140.2743225097656 232.0975952148438 144.3019561767578 228.4400939941406 C 148.3534545898438 224.7609252929688 152.0612182617188 220.4013366699219 155.3222503662109 215.4824371337891 C 158.6146545410156 210.5162048339844 161.5440826416016 204.841064453125 164.0291595458984 198.6146240234375 C 166.5374145507812 192.3300628662109 168.6615600585938 185.3122253417969 170.3425903320312 177.7561340332031 C 172.0365600585938 170.1419067382812 173.3266296386719 161.7737731933594 174.1770629882812 152.8840637207031 C 175.0327606201172 143.9387969970703 175.4666595458984 134.2207641601562 175.4666595458984 124 C 175.4666595458984 113.7792358398438 175.0327606201172 104.0612030029297 174.1770629882812 95.11590576171875 C 173.3266296386719 86.22622680664062 172.0365600585938 77.85806274414062 170.3425903320312 70.24386596679688 C 168.6615600585938 62.68772888183594 166.5374145507812 55.66993713378906 164.0291595458984 49.38536071777344 C 161.5440826416016 43.158935546875 158.6146545410156 37.4837646484375 155.3222503662109 32.51756286621094 C 152.0612182617188 27.5986328125 148.3534545898438 23.23905944824219 144.3019561767578 19.55990600585938 C 140.2743225097656 15.90240478515625 135.7903900146484 12.81182861328125 130.9747619628906 10.37403869628906 C 126.1547241210938 7.934066772460938 120.8619232177734 6.07666015625 115.2432861328125 4.853530883789062 C 109.5936889648438 3.62359619140625 103.4557571411133 3 96.99998474121094 3 M 96.99998474121094 0 C 150.5716247558594 0 178.4666595458984 40.95970153808594 178.4666595458984 124 C 178.4666595458984 207.0402679443359 150.5716247558594 248 96.99998474121094 248 C 43.42839050292969 248 17.13328552246094 215.182373046875 17.13328552246094 126.7333297729492 C 17.13328552246094 38.2843017578125 43.42839050292969 0 96.99998474121094 0 Z" stroke="none" fill="#052e4f"/>
    </g>
    <g id="Path_12" data-name="Path 12" transform="translate(1512.268 786.3)" fill="none">
      <path d="M67.758,0c28.829,0,38.374,42.909,38.374,89.94S99.206,176,67.758,176c-26.693-.667-36.625-23.29-36.625-86.06S38.929,0,67.758,0Z" stroke="none"/>
      <path d="M 67.75848388671875 3 C 61.15708923339844 3 55.88921356201172 4.517974853515625 51.65386199951172 7.640670776367188 C 47.37603759765625 10.794677734375 44.03506469726562 15.65357971191406 41.43998718261719 22.49502563476562 C 36.38676452636719 35.81700134277344 34.13328552246094 56.61772155761719 34.13328552246094 89.93979644775391 C 34.13328552246094 121.5423278808594 36.69453430175781 142.2402801513672 42.19366455078125 155.0774230957031 C 44.85586547851562 161.2920227050781 48.21569061279297 165.7220001220703 52.46518707275391 168.6205291748047 C 56.54952239990234 171.4064025878906 61.56497955322266 172.839111328125 67.79611206054688 172.9999847412109 C 71.27789306640625 172.9961395263672 74.5137939453125 172.46142578125 77.41426086425781 171.4105224609375 C 80.19216156005859 170.4040222167969 82.76351165771484 168.8862457275391 85.056884765625 166.8993530273438 C 87.30191040039062 164.954345703125 89.36006164550781 162.492919921875 91.17418670654297 159.5834045410156 C 92.95086669921875 156.7339019775391 94.54673767089844 153.3699188232422 95.91746520996094 149.5848693847656 C 97.24156188964844 145.9285278320312 98.39508819580078 141.7695007324219 99.34593200683594 137.2233581542969 C 100.2515411376953 132.8936157226562 101.0021820068359 128.0734252929688 101.5770111083984 122.8966522216797 C 102.6235656738281 113.4719543457031 103.1323089599609 102.6916732788086 103.1323089599609 89.93979644775391 C 103.1323089599609 77.76219940185547 102.4869613647461 66.48522186279297 101.2141876220703 56.42209625244141 C 99.83641052246094 45.52865600585938 97.7235107421875 36.08427429199219 94.93423461914062 28.351318359375 C 91.9732666015625 20.14234924316406 88.23979187011719 13.83419799804688 83.83753967285156 9.602127075195312 C 81.59123229980469 7.442657470703125 79.13104248046875 5.794219970703125 76.52528381347656 4.702621459960938 C 73.82841491699219 3.572845458984375 70.87883758544922 3 67.75848388671875 3 M 67.75848388671875 0 C 96.58748626708984 0 106.1323089599609 42.9091796875 106.1323089599609 89.93979644775391 C 106.1323089599609 136.9703979492188 99.20591735839844 176 67.75848388671875 176 C 41.06555938720703 175.3332977294922 31.13328552246094 152.7100524902344 31.13328552246094 89.93979644775391 C 31.13328552246094 27.16949462890625 38.92946624755859 0 67.75848388671875 0 Z" stroke="none" fill="#052e4f"/>
    </g>
  </g>
</svg>
