<svg xmlns="http://www.w3.org/2000/svg" width="489.386" height="259.461" viewBox="0 0 489.386 259.461">
  <g id="contact-image" transform="translate(-388.112 -1097.544)">
    <g id="Group_29" data-name="Group 29">
      <path id="Path_58" data-name="Path 58" d="M653.478,1357.722c.972-3.241,11.938-28.306,20.365-51.858,5.24-16.8,2.755-36.841,2.107-42.243-4.213-11.83-12.856-34.086-13.991-38.569a19.088,19.088,0,0,0-4.105-9.723s-4.7-6.158-7.13-9.723a19.145,19.145,0,0,1-2.377-8.157s0-16.638-9.723-22.256c-14.207-3.943-15.125,12.965-15.125,12.965s-3.241,16.422,0,24.849c2.647,9.453,6.644,12.37,9.507,17.07.7,7.509,1.945,19.015,1.945,19.015l-13.4-17.07s-4.473,53.712-5.013,78.858c-1.513,3.106-7.762,9.89-18.133,12.267-15.963-.189-60.907,2.652-60.907,2.652s4.592,15.557,9.291,32.573C583.254,1361.449,636.732,1360.693,653.478,1357.722Z" transform="translate(199.393 -4.345)" fill="none" stroke="#fff" stroke-width="2"/>
      <path id="Path_59" data-name="Path 59" d="M709.574,1312.333l1.152,8.931a36.142,36.142,0,0,0-10.66,17.43" transform="translate(124.643 -67.678)" fill="none" stroke="#fff" stroke-width="2"/>
      <path id="Path_60" data-name="Path 60" d="M712.267,1274.867s7.346,7.347,11.236,8.355" transform="translate(119.033 -50.451)" fill="none" stroke="#fff" stroke-width="2"/>
      <path id="Path_61" data-name="Path 61" d="M721.6,1174.6c-.972,1.623-3.133,6.664,2.341,17.18,5.474,10.228,7.635,8.643,8.355,4.033" transform="translate(115.313 -4.345)" fill="none" stroke="#fff" stroke-width="2"/>
      <path id="Path_62" data-name="Path 62" d="M481.694,1177.672a5.909,5.909,0,0,0-6.374-.648c-3.457,1.837-4.862,6.806-3.241,13.5s6.158,12.749,9.615,15.233" transform="translate(229.783 -5.15)" fill="none" stroke="#fff" stroke-width="2"/>
      <path id="Path_63" data-name="Path 63" d="M473.142,1235.818a8.166,8.166,0,0,0-9.4.756c-5.024,3.754-9.145,7.048-10.7,14.261-.324,8.67,7.455,18.8,9.4,20.419a10.733,10.733,0,0,0,9.183,2.161,13.822,13.822,0,0,0,8.751-8.751c1.188-4.105-.324-12.532-2.917-16.314s-4.322-6.7-4.322-6.7Z" transform="translate(238.336 -32.289)" fill="none" stroke="#fff" stroke-width="2"/>
      <path id="Path_64" data-name="Path 64" d="M462.273,1300.9c-.741-1.111-5.433,4.136-8.2,11.167-1.431,6,.756,10.588,4.538,14.909s7.613,8.373,14.693,11.668c4.711,1.891,10.453-2.06,12.64-5.294.837-1.458,3.673-4.646,1.837-9.939s-12.667-17.386-13.613-17.934C471.144,1303.533,467.154,1305.185,462.273,1300.9Z" transform="translate(237.956 -62.354)" fill="none" stroke="#fff" stroke-width="2"/>
      <path id="Path_65" data-name="Path 65" d="M465.076,1363.333c-.988.37-4.939,1.3-6.421,7.964s-.8,13.273,1.05,17.656,8.273,9.322,15.99,11.421,6.729,1.852,11.3,1.914,9.446-3.087,10.248-9.446-5.927-12.594-11.421-15.187a66.456,66.456,0,0,1-14.57-10.187C468.6,1364.938,466.064,1362.963,465.076,1363.333Z" transform="translate(236.018 -91.108)" fill="none" stroke="#fff" stroke-width="2"/>
      <g id="Rectangle_56" data-name="Rectangle 56" transform="translate(710.336 1097.544)" fill="#052e4f" stroke="#fff" stroke-width="2">
        <rect width="111" height="224" rx="30" stroke="none"/>
        <rect x="1" y="1" width="109" height="222" rx="29" fill="none"/>
      </g>
      <g id="Rectangle_55" data-name="Rectangle 55" transform="translate(716.336 1104.544)" fill="#052e4f" stroke="#fff" stroke-width="2">
        <rect width="100" height="209" rx="22" stroke="none"/>
        <rect x="1" y="1" width="98" height="207" rx="21" fill="none"/>
      </g>
    </g>
    <g id="contact-image-2" data-name="contact-image" transform="translate(85.112 62.79)">
      <g id="Group_28" data-name="Group 28" transform="translate(304 1093.939)">
        <path id="Path_55" data-name="Path 55" d="M276.5,1540h96.129v56.433H358.52l5.978,19.609-38.26-19.609H276.5Z" transform="translate(-276.5 -1540)" fill="none" stroke="#fff" stroke-width="2"/>
        <line id="Line_51" data-name="Line 51" x2="51.412" transform="translate(22.119 18.233)" fill="none" stroke="#fff" stroke-width="2"/>
        <line id="Line_52" data-name="Line 52" x2="51.412" transform="translate(22.119 29.592)" fill="none" stroke="#fff" stroke-width="2"/>
        <line id="Line_53" data-name="Line 53" x2="51.412" transform="translate(22.119 40.95)" fill="none" stroke="#fff" stroke-width="2"/>
      </g>
      <path id="phone" d="M73.561,55.6V66.379a7.185,7.185,0,0,1-7.832,7.185,71.1,71.1,0,0,1-31-11.029A70.055,70.055,0,0,1,13.17,40.979,71.1,71.1,0,0,1,2.141,9.832,7.185,7.185,0,0,1,9.29,2H20.068a7.185,7.185,0,0,1,7.185,6.179,46.128,46.128,0,0,0,2.515,10.1,7.185,7.185,0,0,1-1.617,7.58l-4.563,4.563A57.481,57.481,0,0,0,45.144,51.973l4.563-4.563a7.185,7.185,0,0,1,7.58-1.617,46.128,46.128,0,0,0,10.1,2.515A7.185,7.185,0,0,1,73.561,55.6Z" transform="translate(446.779 1091.939)" fill="none" stroke="#fff" stroke-linecap="round" stroke-linejoin="round" stroke-width="2"/>
      <g id="mail" transform="translate(562.29 1093.939)">
        <path id="Path_56" data-name="Path 56" d="M10.949,4H82.542a8.975,8.975,0,0,1,8.949,8.949V66.644a8.975,8.975,0,0,1-8.949,8.949H10.949A8.975,8.975,0,0,1,2,66.644V12.949A8.975,8.975,0,0,1,10.949,4Z" transform="translate(-2 -4)" fill="#052e4f" stroke="#fff" stroke-linecap="round" stroke-linejoin="round" stroke-width="2"/>
        <path id="Path_57" data-name="Path 57" d="M91.491,6,46.746,37.322,2,6" transform="translate(-2 2.949)" fill="none" stroke="#fff" stroke-linecap="round" stroke-linejoin="round" stroke-width="2"/>
      </g>
    </g>
  </g>
</svg>
