<svg xmlns="http://www.w3.org/2000/svg" xmlns:xlink="http://www.w3.org/1999/xlink" width="263.962" height="269.905" viewBox="0 0 263.962 269.905">
  <defs>
    <clipPath id="clip-path">
      <path id="Path_123" data-name="Path 123" d="M19.037,25.481c10.506.011,19.017-5.684,19.01-12.72S29.516.011,19.01,0-.008,5.684,0,12.72,8.531,25.47,19.037,25.481Z" transform="matrix(-0.774, -0.633, 0.633, -0.774, 29.447, 43.814)" fill="none"/>
    </clipPath>
    <clipPath id="clip-path-2">
      <path id="Path_125" data-name="Path 125" d="M17.6,23.553c9.712.011,17.579-5.253,17.571-11.757S27.283.011,17.571,0-.007,5.253,0,11.757,7.886,23.543,17.6,23.553Z" transform="translate(27.219 40.499) rotate(-140.711)" fill="none"/>
    </clipPath>
  </defs>
  <g id="Group_57" data-name="Group 57" transform="translate(-362.395 -132.043)">
    <path id="Path_4" data-name="Path 4" d="M588.214,244.834c-8.412-37.062-46.863-59.3-82.967-47.668q-1.088.351-2.194.732c-47.2,16.259-31.71,64.3-55.308,79.08s-40.559,36.214-30.235,64.3,73.006,54.691,122.415,24.389C578.763,341.847,598.919,292,588.214,244.834Z" transform="translate(-18.032)" fill="none" stroke="#fff" stroke-miterlimit="10" stroke-width="1.109"/>
    <ellipse id="Ellipse_1" data-name="Ellipse 1" cx="30.659" cy="30.595" rx="30.659" ry="30.595" transform="matrix(-0.158, -0.987, 0.987, -0.158, 565.3, 231.157)" fill="none" stroke="#bfd9ff" stroke-miterlimit="10" stroke-width="1.109"/>
    <g id="Group_56" data-name="Group 56" transform="translate(362.922 132.543)">
      <path id="Path_5" data-name="Path 5" d="M514.223,334.625H621.259a3.325,3.325,0,0,0,3.03-4.68L548.342,159.22a3.316,3.316,0,0,0-3.03-1.971H438.276a3.325,3.325,0,0,0-3.031,4.68l75.947,170.725A3.319,3.319,0,0,0,514.223,334.625Z" transform="translate(-434.953 -132.543)" fill="none" stroke="#fff" stroke-width="1"/>
      <path id="Path_6" data-name="Path 6" d="M504.008,214.2l-34.543-77.65a2.847,2.847,0,0,1,2.6-4.007h96.921a9.109,9.109,0,0,1,8.322,5.413l35.067,78.829a2.848,2.848,0,0,1-2.6,4.007H514.143A11.094,11.094,0,0,1,504.008,214.2Z" transform="translate(-457.18 -132.543)" fill="#052e4f" stroke="#fff" stroke-width="1"/>
      <path id="Path_7" data-name="Path 7" d="M491.444,267.413,456.9,189.763a2.847,2.847,0,0,1,2.6-4.007h96.922a9.11,9.11,0,0,1,8.321,5.413L599.806,270a2.847,2.847,0,0,1-2.6,4.007H501.579A11.1,11.1,0,0,1,491.444,267.413Z" transform="translate(-432.079 -132.543)" fill="none" stroke="#fff" stroke-miterlimit="10" stroke-width="1.109"/>
      <path id="Path_8" data-name="Path 8" d="M446.36,239.978h-4.425l11.891,23.281h71.9l-2.9-5.682" transform="translate(-342.249 -132.543)" fill="none" stroke="#fff" stroke-miterlimit="10" stroke-width="0.554"/>
      <g id="Group_17" data-name="Group 17" transform="translate(78.933 3.815)">
        <g id="Group_12" data-name="Group 12" transform="translate(0)">
          <path id="Path_120" data-name="Path 120" d="M21.866,32.845c12.066.013,21.84-7.329,21.83-16.4S33.9.013,21.83,0-.01,7.329,0,16.4,9.8,32.831,21.866,32.845Z" transform="matrix(-0.756, -0.655, 0.655, -0.756, 33.017, 53.439)" fill="#e6f4ff"/>
          <g id="Group_11" data-name="Group 11" transform="translate(3.208 3.144)">
            <path id="Path_121" data-name="Path 121" d="M19.293,28.981c10.647.012,19.27-6.466,19.262-14.469S29.908.012,19.262,0-.009,6.466,0,14.469,8.647,28.969,19.293,28.981Z" transform="translate(29.133 47.152) rotate(-139.08)" fill="#94c3ff"/>
          </g>
        </g>
        <g id="Group_16" data-name="Group 16" transform="translate(14.462 13.702)">
          <g id="Group_15" data-name="Group 15">
            <g id="Group_14" data-name="Group 14" transform="translate(0 2.021)">
              <g id="Group_13" data-name="Group 13">
                <path id="Path_9" data-name="Path 9" d="M515.8,166.427s8.772,1.453,12.517,2.933a6.789,6.789,0,0,1,3.555,4.587l.009.018c-2.039,3.573-5.921,5.844-10.989,5.844-6.547,0-13.282-3.786-17.59-9.285C505.649,167.072,515.8,166.427,515.8,166.427Z" transform="translate(-503.303 -152.081)" fill="#4361c4"/>
                <path id="Path_10" data-name="Path 10" d="M521.176,162.685l1.513,6.4a1.215,1.215,0,0,1-.965,1.6,7.171,7.171,0,0,1-5.083-1.112,2.271,2.271,0,0,1-1.059-1.67c-.213-2.989-.818-9.117-.818-9.117Z" transform="translate(-505.592 -152.081)" fill="#ff8d68"/>
                <path id="Path_11" data-name="Path 11" d="M521.725,155.9s4.12,8.36,3.318,10.606c-.927,1.533-9.211-1.91-10.568-4.151s-4.473-6.3-2.045-8.84S518.608,151.838,521.725,155.9Z" transform="translate(-504.779 -152.081)" fill="#ff8d68"/>
              </g>
            </g>
            <path id="Path_12" data-name="Path 12" d="M526.405,155.9a4.61,4.61,0,0,0-1.768-4.694c-2.495-1.74-5.694-1.392-6.846.348a19.112,19.112,0,0,0-1.25,2,2.348,2.348,0,0,0-1.635,1.566c-.408,1.3,2.187,4.611,3.243,5.568s.837.982.837.982l.353-.46a20.829,20.829,0,0,0-.71-4c-.138-.783.754-1.914,2.329-2.175S523.111,156.241,526.405,155.9Z" transform="translate(-509.459 -150.06)" fill="#7e3636"/>
            <path id="Path_13" data-name="Path 13" d="M524.031,159.7a1.459,1.459,0,0,0-1.593-.765c-1.013.339,1.01,3.534,2.082,3.312C525.547,161.986,524.031,159.7,524.031,159.7Z" transform="translate(-515.117 -150.06)" fill="#ff8d68"/>
            <path id="Path_14" data-name="Path 14" d="M514.365,166.69a12.719,12.719,0,0,0,4.368,3.132c.38.116.944.87.944.87l.4-1.044a2.207,2.207,0,0,0,1.056-2.378l.3.232.8,1.972a12.167,12.167,0,0,1,.557,2.552l-1.994-1.1a3.878,3.878,0,0,1-2.182.058s-.412,1.392-.784,1.508-3.383-2.726-3.84-3.712a3.712,3.712,0,0,1-.391-1.972Z" transform="translate(-504.45 -150.06)" fill="#fff"/>
          </g>
        </g>
      </g>
      <g id="Group_18" data-name="Group 18" transform="translate(29.919 16.787)">
        <path id="Path_15" data-name="Path 15" d="M551.278,170.369h41.986a1.581,1.581,0,0,0,1.483-2.338L588.8,151.667a3.689,3.689,0,0,0-3.181-2.337H543.637a1.581,1.581,0,0,0-1.484,2.337l5.943,16.364A3.69,3.69,0,0,0,551.278,170.369Z" transform="translate(-542.003 -149.33)" fill="none" stroke="#fff" stroke-width="1"/>
        <path id="Path_16" data-name="Path 16" d="M552.552,156.732h36.154l-.637-1.753H551.916Z" transform="translate(-545.703 -149.33)" fill="none" stroke="#fff" stroke-width="1"/>
        <path id="Path_17" data-name="Path 17" d="M551.063,160.823h21.77l-.637-1.753H550.427Z" transform="translate(-528.344 -149.33)" fill="none" stroke="#fff" stroke-width="1"/>
        <path id="Path_18" data-name="Path 18" d="M549.716,164.525h5.637l-.637-1.753h-5.637Z" transform="translate(-509.519 -149.33)" fill="none" stroke="#fff" stroke-width="1"/>
      </g>
      <g id="Group_21" data-name="Group 21" transform="translate(42.813 42.721)">
        <path id="Path_19" data-name="Path 19" d="M540.323,177.9a4.372,4.372,0,0,0,3.688,2.633c1.452,0,2.152-1.178,1.567-2.633a4.375,4.375,0,0,0-3.689-2.632C540.438,175.264,539.736,176.442,540.323,177.9Z" transform="translate(-503.612 -175.264)" fill="#94c3ff"/>
        <path id="Path_20" data-name="Path 20" d="M549.469,177.9a4.372,4.372,0,0,0,3.688,2.633c1.452,0,2.152-1.178,1.567-2.633a4.375,4.375,0,0,0-3.689-2.632C549.584,175.264,548.882,176.442,549.469,177.9Z" transform="translate(-521.884 -175.264)" fill="#94c3ff"/>
        <path id="Path_21" data-name="Path 21" d="M558.615,177.9a4.372,4.372,0,0,0,3.688,2.633c1.452,0,2.152-1.178,1.567-2.633a4.375,4.375,0,0,0-3.689-2.632C558.73,175.264,558.028,176.442,558.615,177.9Z" transform="translate(-540.156 -175.264)" fill="#94c3ff"/>
        <path id="Path_22" data-name="Path 22" d="M567.761,177.9a4.372,4.372,0,0,0,3.688,2.633c1.452,0,2.152-1.178,1.567-2.633a4.375,4.375,0,0,0-3.689-2.632C567.876,175.264,567.174,176.442,567.761,177.9Z" transform="translate(-558.428 -175.264)" fill="#ff8d02"/>
        <path id="Path_23" data-name="Path 23" d="M576.907,177.9a4.372,4.372,0,0,0,3.689,2.633c1.451,0,2.151-1.178,1.566-2.633a4.375,4.375,0,0,0-3.689-2.632C577.022,175.264,576.32,176.442,576.907,177.9Z" transform="translate(-576.7 -175.264)" fill="#a1c2ff" opacity="0.39"/>
      </g>
      <g id="Group_22" data-name="Group 22" transform="translate(92.098 56.327)">
        <path id="Path_35" data-name="Path 35" d="M498.072,195.534h35.146l-2.687-6.664H495.386Z" transform="translate(-495.386 -188.87)" fill="#4361c4"/>
        <path id="Path_36" data-name="Path 36" d="M490.479,210.528h20.027l-1.151-2.856H489.328Z" transform="translate(-466.629 -188.87)" fill="#a1c2ff" opacity="0.39"/>
        <path id="Path_37" data-name="Path 37" d="M494.322,204.816h14.724l-2.686-6.664H491.636Z" transform="translate(-467.471 -188.87)" fill="#a1c2ff" opacity="0.39"/>
      </g>
      <g id="Group_30" data-name="Group 30" transform="translate(22.966 102.019)">
        <path id="Path_38" data-name="Path 38" d="M547.75,275.913l-17.2-38.661a1.418,1.418,0,0,1,1.292-1.995H580.1a4.537,4.537,0,0,1,4.143,2.695L601.7,277.2a1.418,1.418,0,0,1-1.292,1.995H552.795A5.524,5.524,0,0,1,547.75,275.913Z" transform="translate(-530.427 -234.562)" fill="#052e4f" stroke="#fff" stroke-width="1"/>
        <g id="Group_29" data-name="Group 29" transform="translate(12.369)">
          <path id="Path_122" data-name="Path 122" d="M19.037,25.481c10.506.011,19.017-5.684,19.01-12.72S29.516.011,19.01,0-.008,5.684,0,12.72,8.531,25.47,19.037,25.481Z" transform="matrix(-0.774, -0.633, 0.633, -0.774, 29.447, 43.814)" fill="#a1c2ff" opacity="0.39"/>
          <g id="Group_28" data-name="Group 28" transform="translate(0)">
            <g id="Group_27" data-name="Group 27" transform="translate(0)" clip-path="url(#clip-path)">
              <g id="Group_26" data-name="Group 26" transform="translate(12.722 10.2)">
                <path id="Path_39" data-name="Path 39" d="M551.669,258.092s-7.825,3.9-8.653,7.468,2.644,12.988,2.644,12.988h31.1s-5.1-11.04-9.061-13.637-11.613-4.581-11.613-4.581Z" transform="translate(-542.889 -244.762)" fill="#4385ff"/>
                <g id="Group_25" data-name="Group 25" transform="translate(2.509)">
                  <g id="Group_24" data-name="Group 24">
                    <g id="Group_23" data-name="Group 23" transform="translate(1.114 2.223)">
                      <path id="Path_40" data-name="Path 40" d="M568.022,255.557l2.441,5.285c.305.661.124,1.265-.445,1.437a5.623,5.623,0,0,1-4.2-.485,2.3,2.3,0,0,1-1.157-1.318c-.752-2.511-2.427-7.643-2.427-7.643Z" transform="translate(-559.657 -246.985)" fill="#94c3ff"/>
                      <path id="Path_41" data-name="Path 41" d="M568.492,249.69s4.868,6.706,4.68,8.679c-.427,1.38-7.6-.789-9.1-2.564s-4.742-4.931-3.336-7.3S565.253,246.534,568.492,249.69Z" transform="translate(-560.388 -246.985)" fill="#94c3ff"/>
                    </g>
                    <path id="Path_42" data-name="Path 42" d="M567.868,248.705a2.992,2.992,0,0,1,.174.264c.282.477.7,1.439-.468,1.5l-1.561.084s-2.505-1.429-3.489.084c-.731,1.513,1.654,2.438,1.456,3.195s-.1.588.239,1.008a3.854,3.854,0,0,0,1.734,1.6c1.127.5,2.015.42,3.091,1.009s3.154-.085,3.37-.589c.5-.42.79.5,1.112,1.093s1.312.757.359,1.513-1.657,1.093-3.322.084a8.144,8.144,0,0,0-3.394-1.345,5.69,5.69,0,0,1-3.568-2.316c-.64-1.047-.846-2.392-1.386-2.9s-.838,0-.6.588-2.049-.5-2.592-2.27.413-1.681.509-2.69-1.049-2.186.173-3.11,2.367.252,2.8-.337,2.33-.672,3.844.589a4.6,4.6,0,0,1,1.6,3.047" transform="translate(-558.854 -244.762)" fill="#4361c4"/>
                    <path id="Path_43" data-name="Path 43" d="M571.128,253.129s-.658-.851-1.4-.5c-.728.378,1.484,2.9,2.282,2.617C572.765,254.926,571.128,253.129,571.128,253.129Z" transform="translate(-567.482 -244.762)" fill="#94c3ff"/>
                    <path id="Path_44" data-name="Path 44" d="M565.93,257.112s-.714-2.606-2.528-2.942-2.63.756-2.509,1.681a1.544,1.544,0,0,1-.682,1.43S564.783,259.466,565.93,257.112Z" transform="translate(-551.85 -244.762)" fill="#4361c4"/>
                  </g>
                </g>
              </g>
            </g>
          </g>
        </g>
      </g>
      <g id="Group_38" data-name="Group 38" transform="translate(56.966 153.457)">
        <path id="Path_124" data-name="Path 124" d="M17.6,23.553c9.712.011,17.579-5.253,17.571-11.757S27.283.011,17.571,0-.007,5.253,0,11.757,7.886,23.543,17.6,23.553Z" transform="translate(19.219 -63.501) rotate(-140.711)" fill="#a1c2ff" stroke="#fff" stroke-width="1"/>
        <g id="Group_37" data-name="Group 37" transform="translate(-8 -104)">
          <g id="Group_36" data-name="Group 36" transform="translate(0 0)" clip-path="url(#clip-path-2)">
            <g id="Group_35" data-name="Group 35" transform="translate(3.911 9.56)">
              <path id="Path_46" data-name="Path 46" d="M547.464,303.82s-2.142-1.022-2.43.218a2.375,2.375,0,0,0,.659,2.125s-1.936-.534-2.452,1.122,1.039,2.446.394,3.035-1.979,1.852-.112,3.951,4.6,4.505,7.764,2.955,2.157-9.1,2.157-9.1l-.773-2.2Z" transform="translate(-534.3 -297.225)" fill="#4361c4"/>
              <path id="Path_47" data-name="Path 47" d="M539.651,296.864s4.77.4,6.277,3.752-1.488,3.584-1.488,3.584Z" transform="translate(-524.42 -296.598)" fill="#4361c4"/>
              <path id="Path_48" data-name="Path 48" d="M538.624,321l-.307.554a74.174,74.174,0,0,1-6.949,7.209h-6.813a86.171,86.171,0,0,1-8.425-9.134c-.032-.329-4.273-4.952-3.338-6.837s2.148-1.583,2.148-1.583a5.64,5.64,0,0,1,2.935,1.8c1.552,1.611,9.208,13.507,9.208,13.507a11.131,11.131,0,0,1,2.792-3.132c1.81-1.356,7.105-4.214,7.105-4.214s-.325-2.3-.294-2.735,1.348-2.443,1.748-2.012-.535,2.315-.535,2.315S538.93,320.447,538.624,321Z" transform="translate(-492.389 -297.967)" fill="#94c3ff"/>
              <path id="Path_49" data-name="Path 49" d="M544.8,325.307s-.2,1.462-.593,3.332H530.681c-.3-3.06-.931-9.211-1.31-10.671-.508-1.963-.06-6.14-.221-7.288s3.108-.726,3.108-.726l4.261.071.688.295a5.427,5.427,0,0,1,2.356,1.974c.528.81,1.3,1.988,2.35,3.535,1.682,1.279,5.392,3.5,5.119,6.3S544.8,325.307,544.8,325.307Z" transform="translate(-515.611 -297.841)" fill="#4385ff"/>
              <path id="Path_50" data-name="Path 50" d="M541.1,307.012a26.281,26.281,0,0,1,4.823,10.588c-1.234-.38-4.985-3.83-7.2-5.932a2.067,2.067,0,0,1-.847-2.281,9.639,9.639,0,0,0-.832-3.108C536.7,304.312,541.1,307.012,541.1,307.012Z" transform="translate(-521.622 -297.429)" fill="#94c3ff"/>
              <path id="Path_51" data-name="Path 51" d="M552.477,326.669s-.588.814-1.559,2.036h-6.051c1.166-1.549,2.094-2.8,2.382-3.238.989-1.5,7.908-16.624,12.124-14.742.78.347,3.6,2.717,2.447,5.374S552.477,326.669,552.477,326.669Z" transform="translate(-544.867 -297.907)" fill="#94c3ff"/>
              <g id="Group_34" data-name="Group 34" transform="translate(11.025)">
                <g id="Group_33" data-name="Group 33" transform="translate(0.265 0.441)">
                  <g id="Group_32" data-name="Group 32">
                    <path id="Path_52" data-name="Path 52" d="M546.842,300.014a31.457,31.457,0,0,1,2.978,4.443c.777,1.512.245,2.9-1.2,3.052-2.08.223-5.253-.294-6.3-1.489-1.548-1.775-4.869-4.915-3.521-7.355,1.309-2.369,4.29-2.123,7.5.77A4.779,4.779,0,0,1,546.842,300.014Z" transform="translate(-538.486 -297.058)" fill="#94c3ff"/>
                  </g>
                </g>
                <path id="Path_53" data-name="Path 53" d="M550.56,298.418s2.088,3.422-3.842,5.606l-.746.337s-2.59-2.061-2.628-4.244a3.25,3.25,0,0,1,2.217-3.452C546.693,296.191,549.768,297.6,550.56,298.418Z" transform="translate(-543.343 -296.57)" fill="#4361c4"/>
              </g>
              <path id="Path_54" data-name="Path 54" d="M548.312,305.3s-1.5-1.037-1.484-.08,2.124,1.983,2.345,1.583S548.312,305.3,548.312,305.3Z" transform="translate(-533.749 -297.358)" fill="#94c3ff"/>
            </g>
          </g>
        </g>
      </g>
      <g id="Group_39" data-name="Group 39" transform="translate(106.979 148.232)">
        <path id="Path_55" data-name="Path 55" d="M463.278,296.066h53.151c1.63,0,2.419-1.326,1.759-2.96l-3.778-9.371a4.917,4.917,0,0,0-4.146-2.96H457.114c-1.63,0-2.419,1.325-1.759,2.96l3.778,9.371A4.919,4.919,0,0,0,463.278,296.066Z" transform="translate(-455.121 -280.775)" fill="#052e4f" stroke="#fff" stroke-width="1"/>
        <path id="Path_56" data-name="Path 56" d="M465,289.16h45.769l-.895-2.22H464.1Z" transform="translate(-456.424 -280.775)" fill="#052e4f" stroke="#fff" stroke-width="1"/>
      </g>
      <g id="Group_44" data-name="Group 44" transform="translate(134.244 6.229)">
        <g id="Group_40" data-name="Group 40" transform="translate(3.948)">
          <path id="Path_57" data-name="Path 57" d="M466.694,141.728h1.8c.318,0,.472-.258.343-.577l-.726-1.8a.959.959,0,0,0-.809-.577h-1.8c-.318,0-.472.258-.343.577l.726,1.8A.957.957,0,0,0,466.694,141.728Z" transform="translate(-446.678 -138.772)" fill="#f9fbfc"/>
          <path id="Path_58" data-name="Path 58" d="M485.172,141.728h1.8c.318,0,.472-.258.343-.577l-.726-1.8a.959.959,0,0,0-.808-.577h-1.8c-.318,0-.472.258-.343.577l.726,1.8A.959.959,0,0,0,485.172,141.728Z" transform="translate(-483.591 -138.772)" fill="#bfd9ff"/>
        </g>
        <g id="Group_41" data-name="Group 41" transform="translate(0 8.499)">
          <path id="Path_59" data-name="Path 59" d="M463.261,150.228h1.8c.318,0,.472-.259.343-.578l-.726-1.8a.96.96,0,0,0-.809-.578h-1.8c-.318,0-.472.259-.343.578l.725,1.8A.96.96,0,0,0,463.261,150.228Z" transform="translate(-435.87 -147.271)" fill="#bfd9ff"/>
          <path id="Path_60" data-name="Path 60" d="M472.5,150.228h1.8c.318,0,.472-.259.343-.578l-.725-1.8a.96.96,0,0,0-.809-.578h-1.8c-.318,0-.472.259-.343.578l.726,1.8A.96.96,0,0,0,472.5,150.228Z" transform="translate(-454.327 -147.271)" fill="#f9fbfc"/>
          <path id="Path_61" data-name="Path 61" d="M481.737,150.228h1.8c.318,0,.472-.259.343-.578l-.726-1.8a.96.96,0,0,0-.809-.578h-1.8c-.318,0-.472.259-.343.578l.726,1.8A.96.96,0,0,0,481.737,150.228Z" transform="translate(-472.783 -147.271)" fill="#f9fbfc"/>
          <path id="Path_62" data-name="Path 62" d="M489.129,150.228h1.8c.318,0,.472-.259.343-.578l-.726-1.8a.958.958,0,0,0-.808-.578h-1.8c-.318,0-.472.259-.343.578l.726,1.8A.96.96,0,0,0,489.129,150.228Z" transform="translate(-487.548 -147.271)" fill="#f9fbfc"/>
        </g>
        <g id="Group_42" data-name="Group 42" transform="translate(10.801 16.999)">
          <path id="Path_63" data-name="Path 63" d="M459.827,158.727h1.8c.317,0,.472-.259.343-.577l-.726-1.8a.959.959,0,0,0-.809-.577h-1.8c-.318,0-.472.258-.343.577l.725,1.8A.961.961,0,0,0,459.827,158.727Z" transform="translate(-439.81 -155.771)" fill="#f9fbfc"/>
          <path id="Path_64" data-name="Path 64" d="M452.438,158.727h1.8c.318,0,.472-.259.343-.577l-.725-1.8a.959.959,0,0,0-.809-.577h-1.8c-.318,0-.472.258-.343.577l.726,1.8A.961.961,0,0,0,452.438,158.727Z" transform="translate(-425.047 -155.771)" fill="#f9fbfc"/>
          <path id="Path_65" data-name="Path 65" d="M469.067,158.727h1.8c.318,0,.472-.259.343-.577l-.726-1.8a.957.957,0,0,0-.808-.577h-1.8c-.318,0-.472.258-.343.577l.726,1.8A.961.961,0,0,0,469.067,158.727Z" transform="translate(-458.268 -155.771)" fill="#f9fbfc"/>
          <path id="Path_66" data-name="Path 66" d="M478.3,158.727h1.8c.318,0,.472-.259.343-.577l-.726-1.8a.959.959,0,0,0-.809-.577h-1.8c-.318,0-.472.258-.343.577l.726,1.8A.96.96,0,0,0,478.3,158.727Z" transform="translate(-476.723 -155.771)" fill="#bfd9ff"/>
        </g>
        <g id="Group_43" data-name="Group 43" transform="translate(32.663 25.498)">
          <path id="Path_67" data-name="Path 67" d="M456.393,167.226h1.8c.318,0,.472-.258.344-.577l-.726-1.8a.959.959,0,0,0-.809-.577h-1.8c-.318,0-.472.258-.344.577l.726,1.8A.959.959,0,0,0,456.393,167.226Z" transform="translate(-454.813 -164.27)" fill="#f9fbfc"/>
        </g>
      </g>
      <g id="Group_49" data-name="Group 49" transform="translate(123.702 171.867)">
        <g id="Group_45" data-name="Group 45" transform="translate(5.565)">
          <path id="Path_68" data-name="Path 68" d="M467.179,308.577h2.534c.448,0,.665-.364.484-.814l-1.024-2.539a1.354,1.354,0,0,0-1.141-.814H465.5c-.449,0-.666.365-.484.814l1.024,2.539A1.35,1.35,0,0,0,467.179,308.577Z" transform="translate(-438.966 -304.41)" fill="#4385ff"/>
          <path id="Path_69" data-name="Path 69" d="M493.222,308.577h2.533c.448,0,.666-.364.484-.814l-1.024-2.539a1.352,1.352,0,0,0-1.14-.814h-2.533c-.448,0-.665.365-.484.814l1.024,2.539A1.352,1.352,0,0,0,493.222,308.577Z" transform="translate(-490.994 -304.41)" fill="#4385ff"/>
        </g>
        <g id="Group_46" data-name="Group 46" transform="translate(0 11.98)">
          <path id="Path_70" data-name="Path 70" d="M462.339,320.557h2.533c.448,0,.665-.365.484-.814l-1.024-2.539a1.352,1.352,0,0,0-1.141-.814h-2.533c-.448,0-.666.364-.484.814l1.024,2.539A1.352,1.352,0,0,0,462.339,320.557Z" transform="translate(-423.732 -316.39)" fill="#bfd9ff"/>
          <path id="Path_71" data-name="Path 71" d="M475.36,320.557h2.533c.449,0,.666-.365.484-.814l-1.024-2.539a1.35,1.35,0,0,0-1.139-.814h-2.533c-.449,0-.666.364-.484.814l1.024,2.539A1.352,1.352,0,0,0,475.36,320.557Z" transform="translate(-449.746 -316.39)" fill="#ff8d02"/>
          <path id="Path_72" data-name="Path 72" d="M488.382,320.557h2.533c.449,0,.666-.365.484-.814l-1.024-2.539a1.35,1.35,0,0,0-1.139-.814H486.7c-.448,0-.665.364-.484.814l1.024,2.539A1.354,1.354,0,0,0,488.382,320.557Z" transform="translate(-475.76 -316.39)" fill="#bfd9ff"/>
          <path id="Path_73" data-name="Path 73" d="M498.8,320.557h2.533c.448,0,.665-.365.484-.814l-1.024-2.539a1.35,1.35,0,0,0-1.139-.814h-2.534c-.448,0-.665.364-.484.814l1.024,2.539A1.354,1.354,0,0,0,498.8,320.557Z" transform="translate(-496.571 -316.39)" fill="#bfd9ff"/>
        </g>
        <g id="Group_47" data-name="Group 47" transform="translate(15.223 23.96)">
          <path id="Path_74" data-name="Path 74" d="M457.5,332.536h2.533c.448,0,.665-.364.484-.814l-1.024-2.539a1.352,1.352,0,0,0-1.14-.813h-2.533c-.448,0-.666.364-.484.813l1.024,2.539A1.352,1.352,0,0,0,457.5,332.536Z" transform="translate(-429.286 -328.37)" fill="#bfd9ff"/>
          <path id="Path_75" data-name="Path 75" d="M447.083,332.536h2.533c.448,0,.665-.364.484-.814l-1.024-2.539a1.353,1.353,0,0,0-1.14-.813H445.4c-.448,0-.666.364-.484.813l1.024,2.539A1.352,1.352,0,0,0,447.083,332.536Z" transform="translate(-408.475 -328.37)" fill="#bfd9ff"/>
          <path id="Path_76" data-name="Path 76" d="M470.52,332.536h2.533c.449,0,.666-.364.484-.814l-1.023-2.539a1.354,1.354,0,0,0-1.14-.813h-2.533c-.449,0-.666.364-.484.813l1.024,2.539A1.35,1.35,0,0,0,470.52,332.536Z" transform="translate(-455.3 -328.37)" fill="#bfd9ff"/>
          <path id="Path_77" data-name="Path 77" d="M483.542,332.536h2.533c.449,0,.666-.364.484-.814l-1.024-2.539a1.351,1.351,0,0,0-1.139-.813h-2.534c-.448,0-.665.364-.484.813l1.024,2.539A1.353,1.353,0,0,0,483.542,332.536Z" transform="translate(-481.314 -328.37)" fill="#ff8d02"/>
        </g>
        <g id="Group_48" data-name="Group 48" transform="translate(46.038 35.939)">
          <path id="Path_78" data-name="Path 78" d="M452.659,344.516h2.533c.448,0,.665-.364.484-.814l-1.024-2.539a1.352,1.352,0,0,0-1.14-.814h-2.533c-.448,0-.665.364-.484.814l1.024,2.539A1.352,1.352,0,0,0,452.659,344.516Z" transform="translate(-450.431 -340.349)" fill="#ff8d02"/>
        </g>
      </g>
      <g id="Group_55" data-name="Group 55" transform="translate(101.829 32.466)">
        <path id="Path_79" data-name="Path 79" d="M452.163,258.132h71.9l-11.891-23.281h-71.9Z" transform="translate(-440.272 -165.009)" fill="#052e4f" stroke="#fff" stroke-width="1"/>
        <g id="Group_50" data-name="Group 50" transform="translate(9.891 68.039)">
          <path id="Path_126" data-name="Path 126" d="M10.717,16.7c5.914.006,10.7-3.728,10.7-8.341S16.612.006,10.7,0-.005,3.728,0,8.341,4.8,16.7,10.717,16.7Z" transform="translate(16.052 26.697) rotate(-138.553)" fill="#093e68" stroke="#fff" stroke-width="1"/>
          <path id="Path_80" data-name="Path 80" d="M503.985,251.208a.894.894,0,0,0,.736-.341l2.442-3.259a1.247,1.247,0,0,0-.409-1.646,1.152,1.152,0,0,0-1.643,0l-1.824,2.436-6.52-5.23a1.151,1.151,0,0,0-1.642,0,1.246,1.246,0,0,0,.409,1.646l7.545,6.053A1.474,1.474,0,0,0,503.985,251.208Z" transform="translate(-487.995 -233.048)" fill="#fff"/>
        </g>
        <g id="Group_54" data-name="Group 54" transform="translate(19.914)">
          <path id="Path_81" data-name="Path 81" d="M437.987,190.554a3,3,0,1,0,2.979-3.31A3.158,3.158,0,0,0,437.987,190.554Z" transform="translate(-377.787 -165.009)" fill="none" stroke="#fff" stroke-miterlimit="10" stroke-width="0.519"/>
          <path id="Path_82" data-name="Path 82" d="M421.2,208.438a12.281,12.281,0,0,1,8.314,5.131c3.556,4.812-1.6,22.457-16.9,29.587-9.959,3.921-10.67-4.991-8.181-11.229S414.129,209.9,421.2,208.438Z" transform="translate(-329.74 -165.009)" fill="#fff"/>
          <path id="Path_83" data-name="Path 83" d="M383.107,397.347c0,2.265,21.814,4.1,48.721,4.1s48.72-1.836,48.72-4.1-21.813-4.1-48.72-4.1S383.107,395.083,383.107,397.347Z" transform="translate(-359.632 -165.009)" fill="#052e4f" stroke="#fff" stroke-width="1"/>
          <g id="Group_51" data-name="Group 51" transform="translate(49.092 155.133)">
            <path id="Path_84" data-name="Path 84" d="M434.364,384.078s-1.034-2.219-4.872-1.628-4.283,1.332-4.726,3.256-1.771,4-2.657,4.44-4.135,2.663-6.793,3.107-2.952,2.072-2.362,2.812S423.586,397.4,425.8,397.1c0,0,7.53-.148,9.3-.74S434.511,384.818,434.364,384.078Z" transform="translate(-393.46 -320.142)" fill="#052e4f" stroke="#fff" stroke-width="1"/>
            <path id="Path_85" data-name="Path 85" d="M453.645,384.078s-1.034-2.219-4.873-1.628-4.282,1.332-4.725,3.256-1.772,4-2.658,4.44-4.134,2.663-6.792,3.107-2.953,2.072-2.363,2.812,10.632,1.332,12.847,1.036c0,0,7.53-.148,9.3-.74S453.792,384.818,453.645,384.078Z" transform="translate(-431.978 -320.142)" fill="#052e4f" stroke="#fff" stroke-width="1"/>
            <path id="Path_86" data-name="Path 86" d="M424.736,328.978a7.292,7.292,0,0,0-5.335-8.185c-6.458-2.057-7.68.934-9.635,6.523s1.651,58.375,1.651,58.375,7.87.18,9.776-.949c0,0,5.26-35.026,4.866-43.556S424.736,328.978,424.736,328.978Z" transform="translate(-380.277 -320.142)" fill="#052e4f" stroke="#fff" stroke-width="1"/>
          </g>
          <path id="Path_87" data-name="Path 87" d="M441.816,192.8s-1.512,2.05-1.512,3.119,2.046,1.07,2.046,1.07Z" transform="translate(-378.504 -165.009)" fill="#fff"/>
          <path id="Path_88" data-name="Path 88" d="M422.433,171.931s-4.368,1.12-6.844,7.843-.824,21.009.825,22.69,6.661,1.038,13.611-1.261c7.344-2.429,9.824-10.08,11.136-15.126C443.675,176.413,435.29,166.468,422.433,171.931Z" transform="translate(-351.843 -165.009)" fill="#052e4f" stroke="#fff" stroke-width="1"/>
          <path id="Path_89" data-name="Path 89" d="M434.378,209.039l-3.543-12.726s-7.087-2.072-11.518,2.663l-1.477,2.072v8.287A47.19,47.19,0,0,0,434.378,209.039Z" transform="translate(-348.119 -165.009)" fill="#052e4f" stroke="#fff" stroke-width="1"/>
          <path id="Path_90" data-name="Path 90" d="M428.413,277.556a117.467,117.467,0,0,1,0,33.3c-2.657,17.758-7.973,19.534-12.846,19.534s-6.2-14.206-7.087-20.422-4.43-27.525,2.214-32.408S424.87,272.228,428.413,277.556Z" transform="translate(-332.26 -165.009)" fill="#052e4f" stroke="#fff" stroke-width="1"/>
          <path id="Path_91" data-name="Path 91" d="M449.419,298.422s5.316-14.207-3.986-20.422-16.39-5.328-18.6,4.883-2.658,45.283.443,52.387S441.446,331.274,449.419,298.422Z" transform="translate(-371.872 -165.009)" fill="#052e4f" stroke="#fff" stroke-width="1"/>
          <path id="Path_92" data-name="Path 92" d="M437.927,208.972s-.99-3.484-1.876-3.78-11.812-1.48-17.719,2.071c-2.657,2.072-2.362,3.552-2.362,3.552S433.6,207.425,437.927,208.972Z" transform="translate(-349.792 -165.009)" fill="#fff"/>
          <path id="Path_93" data-name="Path 93" d="M407.237,277.555s-.889,2.139-.355,2.852c.711.713,20.807,7.842,41.97,2.674.356,0-.533-3.565-.533-3.565Z" transform="translate(-351.573 -165.009)" fill="#0b395e"/>
          <path id="Path_94" data-name="Path 94" d="M449.919,245.443c.591-4.143,2.363-24.565,1.772-27.525-.552-2.766-2.91-7.859-7.8-9.48a9.965,9.965,0,0,0-1.063-.287s-18.309-1.184-31.3,4.44c0,0-4.447,3.7-5.27,22.57,0,0,.244,3.182.956,9.955s-.355,11.764-1.423,18.537-3.2,13.546,4.624,14.972c7.469,1.426,28.1,4.99,40.193,1.426,2.489-1.783-1.068-9.982-1.068-16.4S449.919,245.443,449.919,245.443Z" transform="translate(-352.438 -165.009)" fill="#052e4f" stroke="#fff" stroke-width="1"/>
          <path id="Path_95" data-name="Path 95" d="M447.1,329.942a7.288,7.288,0,0,0-6.2-7.547c-6.644-1.332-7.53,1.776-8.859,7.547s6.55,56.1,6.55,56.1,8.695.5,10.467-.83c0,0,2.032-34.852.7-43.287S447.1,329.942,447.1,329.942Z" transform="translate(-377.972 -165.009)" fill="#052e4f" stroke="#fff" stroke-width="1"/>
          <path id="Path_96" data-name="Path 96" d="M435.649,295.092s-6.2,19.978-10.853,29.745" transform="translate(-356.329 -165.009)" fill="none" stroke="#fff" stroke-miterlimit="10" stroke-width="0.666"/>
          <path id="Path_97" data-name="Path 97" d="M444.979,328.832a7.863,7.863,0,0,0-7.531,0" transform="translate(-378.284 -165.009)" fill="none" stroke="#fff" stroke-miterlimit="10" stroke-width="0.666" opacity="0.5"/>
          <path id="Path_98" data-name="Path 98" d="M445.2,331.274s-3.1-1.776-8.416,2" transform="translate(-377.838 -165.009)" fill="none" stroke="#fff" stroke-miterlimit="10" stroke-width="0.666" opacity="0.5"/>
          <path id="Path_99" data-name="Path 99" d="M421.448,326.168s-2.437-2.219-7.973.222" transform="translate(-330.833 -165.009)" fill="none" stroke="#fff" stroke-miterlimit="10" stroke-width="0.666" opacity="0.5"/>
          <path id="Path_100" data-name="Path 100" d="M422.117,328.388a6.648,6.648,0,0,0-6.866.888" transform="translate(-333.273 -165.009)" fill="none" stroke="#fff" stroke-miterlimit="10" stroke-width="0.666" opacity="0.5"/>
          <line id="Line_5" data-name="Line 5" x2="1.329" y2="45.283" transform="translate(80.649 166.931)" fill="none" stroke="#fff" stroke-miterlimit="10" stroke-width="0.666" opacity="0.5"/>
          <path id="Path_101" data-name="Path 101" d="M448.9,293.982s-5.02,2.96-7.087-1.776" transform="translate(-386.562 -165.009)" fill="none" stroke="#fff" stroke-miterlimit="10" stroke-width="0.666" opacity="0.5"/>
          <path id="Path_102" data-name="Path 102" d="M448.712,294.574s-2.363,18.35-1.772,30.485" transform="translate(-391.393 -165.009)" fill="none" stroke="#fff" stroke-miterlimit="10" stroke-width="0.666" opacity="0.5"/>
          <path id="Path_104" data-name="Path 104" d="M416.447,174.87s-2.523,3.477-2.681,5.531,3.154,4.109,3.627,5.374-.611,2.852-.138,3.643a7.414,7.414,0,0,1,.623,2.406l-.163,1.79a1.285,1.285,0,0,0,1.027,1.377l.378.075a1.143,1.143,0,0,0,1.291-.7c.568-1.428,1.739-4.1,2.658-4.325,1.262-.316,2.523,1.9,3,3,.266.624.937,2.309,1.471,3.66a3.3,3.3,0,0,0,2.835,2.077,15.586,15.586,0,0,0,3.6-.006c1.1-.316,6.758-10.788,6.917-15.845s-3.312-10.114-6.939-11.695S423.227,168.233,416.447,174.87Z" transform="translate(-350.564 -165.009)" fill="#052e4f" stroke="#fff" stroke-width="1"/>
          <path id="Path_105" data-name="Path 105" d="M417.759,218.8c0,1.423-5.943,22.876-5,26.669s3.557,30.3,3.557,30.3" transform="translate(-326.33 -165.009)" fill="none" stroke="#fff" stroke-miterlimit="10" stroke-width="0.666" opacity="0.5"/>
          <path id="Path_106" data-name="Path 106" d="M412.677,209.113" transform="translate(-321.265 -165.009)" fill="none" stroke="#a6d0f4" stroke-miterlimit="10" stroke-width="0.535"/>
          <path id="Path_107" data-name="Path 107" d="M427.551,167.985s-3.468.133-4.669-1.6-5.069-2.139-7.87.668-2.667,8.021-.266,9.892c0,0-2.8-.535-3.2,1.471s3.067,5.079,7.2,6.015c0,0,6.669-1.871,8.67-.668s15.473-.134,15.473-.134,2.934-2.674,2.134-5.08-1.6.134-1.6.134.667-3.342-3.735-8.154S429.151,168.386,427.551,167.985Z" transform="translate(-352.589 -165.009)" fill="#052e4f" stroke="#fff" stroke-width="1"/>
          <path id="Path_108" data-name="Path 108" d="M504.27,239.636l-9.47.4a2.03,2.03,0,0,0,1.734,1.2c1.468.267,6.936.936,6.936.936Z" transform="translate(-494.8 -165.009)" fill="#052e4f" stroke="#fff" stroke-width="0.5"/>
          <path id="Path_109" data-name="Path 109" d="M500.536,241.641a24.592,24.592,0,0,0-3.867-.4c-.668.133-1.334,4.01-1.334,4.01l2.534,2.674s.934-.4,0-1.872l-.534-.936,3.868-1.47Z" transform="translate(-492.266 -165.009)" fill="#052e4f" stroke="#fff" stroke-width="0.5"/>
          <g id="Group_53" data-name="Group 53" transform="translate(5.069 47.582)">
            <path id="Path_110" data-name="Path 110" d="M499.184,243.913l-4-.534s-3.335-3.342-4-3.743-4,4.812-4.4,5.48c0,.535,2,2.273,4,2.54s2.668-.267,2.668-.267l4.4,1.738Z" transform="translate(-486.779 -212.591)" fill="#052e4f" stroke="#fff" stroke-width="0.5"/>
            <g id="Group_52" data-name="Group 52" transform="translate(9.048)">
              <path id="Path_111" data-name="Path 111" d="M481.351,212.591s8.935-.092,8.668,10.87-18.94,28.874-24.009,31.013-26.676-3.743-28.543-4.813-1.334-5.614,1.6-6.683l22.141-1.07S475.085,213.484,481.351,212.591Z" transform="translate(-436.377 -212.591)" fill="#052e4f" stroke="#fff" stroke-width="1"/>
              <path id="Path_112" data-name="Path 112" d="M467.69,243.69a8.226,8.226,0,0,0-1.957,6.6" transform="translate(-443.214 -212.591)" fill="#052e4f" stroke="#fff" stroke-miterlimit="10" stroke-width="0.535" opacity="0.5"/>
              <path id="Path_113" data-name="Path 113" d="M471.841,243.156a7.294,7.294,0,0,0-4.8,6.238" transform="translate(-448.788 -212.591)" fill="#052e4f" stroke="#fff" stroke-miterlimit="10" stroke-width="0.535" opacity="0.5"/>
            </g>
          </g>
          <line id="Line_6" data-name="Line 6" x2="9.248" transform="translate(60.2 25.545)" fill="none" stroke="#fff" stroke-miterlimit="10" stroke-width="0.519"/>
          <path id="Path_114" data-name="Path 114" d="M432.511,191.657s.629-2.732,2.935-1.471-.419,7.773-2.306,7.353S432.092,192.707,432.511,191.657Z" transform="translate(-364.156 -165.009)" fill="#052e4f" stroke="#fff" stroke-width="1"/>
          <path id="Path_115" data-name="Path 115" d="M427.4,178.813s-6.4-1.471-10.937,3.341" transform="translate(-339.77 -165.009)" fill="none" stroke="#fff" stroke-miterlimit="10" stroke-width="0.535"/>
          <path id="Path_116" data-name="Path 116" d="M424.78,177.832a7.7,7.7,0,0,0-7.469-1.693" transform="translate(-337.992 -165.009)" fill="none" stroke="#fff" stroke-miterlimit="10" stroke-width="0.535"/>
          <path id="Path_117" data-name="Path 117" d="M419.978,180.06a4.7,4.7,0,0,0-3.29,2.406" transform="translate(-332.568 -165.009)" fill="none" stroke="#fff" stroke-miterlimit="10" stroke-width="0.535"/>
          <path id="Path_118" data-name="Path 118" d="M441.269,167.316s-6.4,2.006-4.935,7.887" transform="translate(-373.243 -165.009)" fill="none" stroke="#fff" stroke-miterlimit="10" stroke-width="0.535"/>
        </g>
      </g>
    </g>
  </g>
</svg>
