<svg xmlns="http://www.w3.org/2000/svg" width="124.126" height="119.967" viewBox="0 0 124.126 119.967">
  <g id="knowledge" transform="translate(-892.927 -1779.139)">
    <line id="Line_37" data-name="Line 37" x2="124" transform="translate(893 1897.606)" fill="none" stroke="#052e4f" stroke-width="3"/>
    <line id="Line_38" data-name="Line 38" x2="41" y2="2" transform="translate(893 1888.606)" fill="none" stroke="#052e4f" stroke-width="3"/>
    <line id="Line_39" data-name="Line 39" y1="1" x2="41" transform="translate(976 1889.606)" fill="none" stroke="#052e4f" stroke-width="3"/>
    <path id="Path_43" data-name="Path 43" d="M56.269,20.462C56.039,6.625,31.822,3.517,27.644,2.494A162.049,162.049,0,0,0,0,0" transform="translate(893.639 1877.61)" fill="none" stroke="#052e4f" stroke-width="3"/>
    <path id="Path_44" data-name="Path 44" d="M0,20.229C.228,6.549,24.17,3.477,28.3,2.466A160.208,160.208,0,0,1,55.63,0" transform="translate(961.418 1877.998)" fill="none" stroke="#052e4f" stroke-width="3"/>
    <g id="Path_45" data-name="Path 45" transform="translate(917.298 1795.125)" fill="none">
      <path d="M31.971,0C49.628,0,63.942,13.455,63.942,30.053c0,12.15-7.67,23.061-19.073,28.2-3.4,3.517-4.426,6.714-12.9,5.755-4.114,0-9.687-2.238-11.995-5.377C8.421,54.154,0,42.783,0,30.053,0,13.455,14.314,0,31.971,0Z" stroke="none"/>
      <path d="M 31.97120094299316 3 C 28.03633499145508 3 24.22225570678711 3.723178863525391 20.63493347167969 5.149456024169922 C 17.17980194091797 6.523166656494141 14.07906723022461 8.487598419189453 11.41888046264648 10.98818969726562 C 8.771812438964844 13.47643280029297 6.695713043212891 16.36915588378906 5.248256683349609 19.58598709106445 C 3.756423950195312 22.90146636962891 3 26.42305374145508 3 30.05294418334961 C 3 35.59502410888672 4.763545989990234 41.00525665283203 8.099979400634766 45.69876861572266 C 9.711090087890625 47.96518707275391 11.63954544067383 49.98643112182617 13.83179092407227 51.70637512207031 C 16.04716873168945 53.44447708129883 18.47900009155273 54.83255386352539 21.05974578857422 55.83205413818359 L 21.87532424926758 56.14792251586914 L 22.39337921142578 56.85258865356445 C 23.99163436889648 59.02656555175781 28.55676651000977 61.00644302368164 31.97120094299316 61.00644302368164 L 32.14046478271484 61.00644302368164 L 32.30865478515625 61.02548980712891 C 33.20772552490234 61.12726593017578 34.03353500366211 61.17886734008789 34.76315689086914 61.17886734008789 C 36.96195602416992 61.17886734008789 37.99319076538086 60.71125411987305 38.57757949829102 60.35953140258789 C 39.45883178710938 59.82914352416992 40.19323348999023 58.98738861083984 41.12301254272461 57.92168807983398 C 41.58913421630859 57.38743209838867 42.11744689941406 56.78188705444336 42.7138557434082 56.16557693481445 L 43.1134033203125 55.75268936157227 L 43.63723373413086 55.51665496826172 C 48.77890014648438 53.19979858398438 53.1250114440918 49.59374237060547 56.20572280883789 45.08832168579102 C 59.30447769165039 40.55648803710938 60.94240188598633 35.35734558105469 60.94240188598633 30.05294418334961 C 60.94240188598633 26.42305374145508 60.18597793579102 22.90146636962891 58.69414520263672 19.58598709106445 C 57.24668884277344 16.36915588378906 55.17058944702148 13.47643280029297 52.52352142333984 10.98818969726562 C 49.86332321166992 8.487598419189453 46.76258850097656 6.523166656494141 43.30745697021484 5.149456024169922 C 39.72013473510742 3.723178863525391 35.90606689453125 3 31.97120094299316 3 M 31.97120094299316 0 C 49.62840270996094 0 63.94240188598633 13.45516586303711 63.94240188598633 30.05294418334961 C 63.94240188598633 42.20252227783203 56.27261352539062 53.11362075805664 44.86970138549805 58.25180053710938 C 41.46662139892578 61.76845550537109 40.44355773925781 64.965576171875 31.97120094299316 64.00644683837891 C 27.8570671081543 64.00644683837891 22.28391265869141 61.76845550537109 19.97629165649414 58.62957763671875 C 8.420768737792969 54.15420913696289 0 42.78344345092773 0 30.05294418334961 C 0 13.45516586303711 14.31399154663086 0 31.97120094299316 0 Z" stroke="none" fill="#052e4f"/>
    </g>
    <g id="Rectangle_47" data-name="Rectangle 47" transform="translate(933 1853.606)" fill="#fff" stroke="#052e4f" stroke-width="3">
      <rect width="33" height="11" rx="5.5" stroke="none"/>
      <rect x="1.5" y="1.5" width="30" height="8" rx="4" fill="none"/>
    </g>
    <g id="Rectangle_48" data-name="Rectangle 48" transform="translate(933 1862.606)" fill="#fff" stroke="#052e4f" stroke-width="3">
      <rect width="33" height="11" rx="5.5" stroke="none"/>
      <rect x="1.5" y="1.5" width="30" height="8" rx="4" fill="none"/>
    </g>
    <path id="Path_46" data-name="Path 46" d="M935.5,1908.479v-17.392l-9.975-10.487" transform="translate(9.069 -52.737)" fill="none" stroke="#052e4f" stroke-width="3"/>
    <path id="Path_47" data-name="Path 47" d="M925.525,1908.479v-17.392l10.487-10.487" transform="translate(27.996 -53.386)" fill="none" stroke="#052e4f" stroke-width="3"/>
    <line id="Line_40" data-name="Line 40" y2="11.51" transform="translate(956.303 1779.139)" fill="none" stroke="#052e4f" stroke-width="3"/>
    <line id="Line_41" data-name="Line 41" x2="12.788" y2="6.394" transform="translate(910.264 1797.043)" fill="none" stroke="#052e4f" stroke-width="3"/>
    <line id="Line_42" data-name="Line 42" x2="14.067" transform="translate(901.313 1825.178)" fill="none" stroke="#052e4f" stroke-width="3"/>
    <line id="Line_43" data-name="Line 43" y1="6.394" x2="12.788" transform="translate(910.264 1850.755)" fill="none" stroke="#052e4f" stroke-width="3"/>
    <line id="Line_44" data-name="Line 44" x2="11.51" y2="6.394" transform="translate(988.274 1850.755)" fill="none" stroke="#052e4f" stroke-width="3"/>
    <line id="Line_45" data-name="Line 45" x2="14.067" y2="0.512" transform="translate(995.947 1824.666)" fill="none" stroke="#052e4f" stroke-width="3"/>
    <line id="Line_46" data-name="Line 46" y1="4.604" x2="14.067" transform="translate(986.995 1797.043)" fill="none" stroke="#052e4f" stroke-width="3"/>
  </g>
</svg>
