<svg xmlns="http://www.w3.org/2000/svg" width="590.073" height="200.45" viewBox="0 0 590.073 200.45">
  <g id="lets-connect" transform="translate(-451.368 -2677.042)">
    <path id="Path_301" data-name="Path 301" d="M0,0,351.888.156l15.048,55.621" transform="translate(451.368 2786.842)" fill="none" stroke="#052e4f" stroke-width="1"/>
    <line id="Line_121" data-name="Line 121" x2="105.597" y2="34.633" transform="translate(817.912 2842.383)" fill="none" stroke="#052e4f" stroke-width="1"/>
    <line id="Line_122" data-name="Line 122" x1="13.381" y1="89.714" transform="translate(910.128 2787.607)" fill="none" stroke="#052e4f" stroke-width="1"/>
    <line id="Line_123" data-name="Line 123" x2="107.657" y2="24.329" transform="translate(802.471 2763.277)" fill="none" stroke="#052e4f" stroke-width="1"/>
    <line id="Line_124" data-name="Line 124" x1="20.072" y1="74.204" transform="translate(802.471 2763.277)" fill="none" stroke="#052e4f" stroke-width="1"/>
    <line id="Line_125" data-name="Line 125" x1="99.75" y1="32.844" transform="translate(822.542 2837.481)" fill="none" stroke="#052e4f" stroke-width="1"/>
    <line id="Line_126" data-name="Line 126" x2="56.565" y2="17.03" transform="translate(918.643 2822.884)" fill="none" stroke="#052e4f" stroke-width="1"/>
    <line id="Line_127" data-name="Line 127" y1="32.236" x2="46.834" transform="translate(928.375 2839.914)" fill="none" stroke="#052e4f" stroke-width="1"/>
    <line id="Line_128" data-name="Line 128" x2="6.082" y2="1.825" transform="translate(922.292 2870.326)" fill="none" stroke="#052e4f" stroke-width="1"/>
    <path id="Path_302" data-name="Path 302" d="M1188.7,2866.191s30.32,5.9,52.51,6.021c4.653-1.054-4.055-4.217-4.055-4.217s-18.815-6.488-23.194-11.6c-3.9-4.552-1.551-6.133,5.352-5.758,2.869.091,30.5,8.556,40.468,9.164s29.413,2.844,42.515-3.365c14.268-9.727,7.786-20.8,3-34.547-4.374-7.976-8.717-14.014-12.818-17.573-3.041-3.406-7.79-3.9-9.063-2.372-2.859,3.1-2.98,8.88-2.2,14.592.857,5.906,3.908,17.833,8.226,22.388.224.238,3.1-1.46,1.581-.73-7.6,5.474-21.364,7.04-35.434,4.617-14.516-2.99-14.775-5.408-20.741-7.177a20.267,20.267,0,0,0-10.335.37,27,27,0,0,0-4.562,2.433c-3.285,2.372-3.041,5.779-2.053,5.956,1.505-.6,4.04-3.665,3.391-11.126s-7.466-9.093-16.366-8.175c-4.758.736-10.119,2.507-16.007,2.945-3.489.26-7.33-.41-11.161-1-10.249-.583-13.188-2.225-11.648-7.577s5.254-9.653,8.173-6.9,7.773,9.526,7.773,9.526l4.217,3.893-2.027-4.785-11.384-14.207v-2.9a4.327,4.327,0,0,1,2.3,0c1.47,1.141,1.044,1.627,2.027,3.244,2.3,2.7,3.7,3.006,5.839,3.812,2.423,1.2,1.632,4,1.865,6,.436,1.708.71.9,3.244,1.054,3.142-.4,15.986-.821,18.9-3.406,2.5-1.672,5.758-2.108,7.218-11.84s4.972-15.773,9.813-14.76c3.675.629,9.575,5.677,14.111,7.542.634.264,2.945,3.183,1.293,7.818-.781,3.333-5.587,4.428-5.644,8.175.423,4.221,6.764,4.343,11.094,3.99,4.185.049,15.194-2.6,18.539-8.759,3.71-7.159,2.579-13.229,4.622-14.884s10.51,2.654,12.554,3.66a12.6,12.6,0,0,0,3.5,1.2s-8.467.292-8.661,10.024.292,25.789,8.661,32.406" transform="translate(-270.056 -43.307)" fill="none" stroke="#052e4f" stroke-width="1"/>
    <path id="Path_303" data-name="Path 303" d="M1306.962,2750.918c-1.67,3.993-4.963,14.889-13.722,21.41-5.634,3.182-10.392,2.168-14.528.465-.416-.179-.9-.971-1.521-1.247-3.285-3.923-3.041-3.893-6.919-9.437a40.984,40.984,0,0,1-5.185-15.774c-.791-7.3-.912-9.975.319-12.545,1.384-2.782,6.228-2.336,8.661-1.265s5.678,2.619,10.413,1.265c4.388-1.749,6.7-5.945,8.759-6.52a6.226,6.226,0,0,1,2.868.392c1.338.426,3.832,3.649,6.28,8.366,4.851,8.725,4.425,6.353,5.644,7.1A35.487,35.487,0,0,1,1306.962,2750.918Z" transform="translate(-308.75 -19.476)" fill="none" stroke="#052e4f" stroke-width="1"/>
    <path id="Path_304" data-name="Path 304" d="M1303.655,2730.372c1.341-.14,5.112-1.478,5.416-9.811.182-13.807-10.136-21.8-18.4-24.42-9.884-3.315-12.375-3.114-21.44-3.193s-12.286,1.338-14.537,3.193a10.9,10.9,0,0,0-4.258,8.12c0,3.8-.23,5.5-.307,8.692-.362,1.679-.423,1.5,0,5.267,1.159,4.805.891,4.282,1.767,6.326,1.4,1.7,2.515,10.109,2.515,10.109" transform="translate(-303.01 -6.034)" fill="none" stroke="#052e4f" stroke-width="1"/>
    <path id="Path_305" data-name="Path 305" d="M1251.95,2717.721s-2.141,6.91,1.07,11.678c3.446,3.558,4.6-1.733,4.087-6.521-.642-6.526-3.622-14.373-4.087-18.587-.386-4.118,2.412-14.7,10.2-20.54,8.515-6.873,24.512-10.34,38.072,2.05,12.639,12.183,16.264,24.767,16.167,32.589-1.521,1.217-2.433-.183-3.418,4.489a43,43,0,0,0-.487,8.661" transform="translate(-303.564)" fill="none" stroke="#052e4f" stroke-width="1"/>
    <path id="Path_306" data-name="Path 306" d="M1346.335,2754.052s.548-5.717,3.285-7.36,6.508.852,5.048,8.09-6.751,8.029-6.751,8.029-3.406.122-3.771-4.44.851-10.157,2.189-12.408-4.014.487-4.744,8.455-.182,7.6-2.068,8.759-4.136-1.946-4.562-4.8,1.521-10.948,3.1-13.32" transform="translate(-336.336 -26.448)" fill="none" stroke="#052e4f" stroke-width="1"/>
    <path id="Path_307" data-name="Path 307" d="M1170.5,2815.493l-1.956-2.418-14.518-17.949.417-1.668h1.6l12.512,16.045-.01,3.572" transform="translate(-265.476 -45.412)" fill="none" stroke="#052e4f" stroke-width="1"/>
  </g>
</svg>
