<svg xmlns="http://www.w3.org/2000/svg" width="96.656" height="38" viewBox="0 0 96.656 38">
  <g id="Group_63" data-name="Group 63" transform="translate(-585 -2030)">
    <path id="Path_130" data-name="Path 130" d="M.7-2.336A9.08,9.08,0,0,0,7.584.384c4.576,0,6.944-2.784,6.944-6.272,0-4.128-3.168-5.536-5.888-6.752-1.984-.9-3.68-1.664-3.68-3.3a2.615,2.615,0,0,1,2.912-2.592A6.259,6.259,0,0,1,12.384-16.7l1.728-2.688a8.674,8.674,0,0,0-6.144-2.3c-4.032,0-6.624,2.624-6.624,5.952,0,4,3.072,5.312,5.728,6.464,2.048.928,3.84,1.76,3.84,3.68,0,1.5-1.12,2.816-3.328,2.816A6.822,6.822,0,0,1,2.5-5.088ZM16.576,6.048a7.51,7.51,0,0,0,1.728.224c2.176,0,3.68-.768,4.544-3.36L28.96-15.456H25.568L22.112-3.84,18.688-15.456H15.3L20.48.32l-.64,1.856a1.664,1.664,0,0,1-1.76,1.28,2.371,2.371,0,0,1-1.024-.224ZM29.664-1.824A7.561,7.561,0,0,0,35.328.384c3.392,0,5.536-1.952,5.536-4.608,0-3.392-2.656-4.352-4.864-5.152-1.536-.544-2.816-1.088-2.816-2.24,0-.992.928-1.7,2.368-1.7a4.86,4.86,0,0,1,3.68,1.632l1.344-2.176a7.15,7.15,0,0,0-5.088-1.984c-3.392,0-5.312,2.016-5.312,4.416,0,3.232,2.56,4.16,4.736,4.928,1.568.576,2.912,1.152,2.912,2.432,0,1.184-.96,1.92-2.56,1.92a6,6,0,0,1-4.16-1.92ZM47.872.384a3.771,3.771,0,0,0,2.784-.928l-.768-2.4a1.6,1.6,0,0,1-1.216.512c-.832,0-1.184-.64-1.184-1.7v-8.544h2.56v-2.784h-2.56V-19.68h-3.2v4.224H42.272v2.784h2.016v9.216C44.288-.928,45.44.384,47.872.384Z" transform="translate(631 2061)" fill="#fff"/>
    <rect id="Rectangle_61" data-name="Rectangle 61" width="43" height="38" rx="4" transform="translate(585 2030)" fill="#fff"/>
    <g id="_151602" data-name="151602" transform="translate(590.743 2033.146)">
      <path id="Path_127" data-name="Path 127" d="M21.714-1255.762c-.005.005-1.045.015-2.308.025-2.376.017-3.685.045-4.207.093a10.116,10.116,0,0,0-2.072.43,4.169,4.169,0,0,0-1.341.731c-.06.058-.246.228-.412.377a12.627,12.627,0,0,0-3.451,5.192c-.178.457-.671,1.919-.759,2.253l-.063.234h.995l.271-.434a14.1,14.1,0,0,1,1.718-2.3,5.053,5.053,0,0,1,2.17-1.457,8.711,8.711,0,0,1,2.868-.422l.779-.013.06.055c.055.053.058.07.043.249-.055.678-.07.846-.093,1.083-.015.146-.033.364-.038.489s-.02.289-.033.364-.023.156-.025.176c0,.136-.028.5-.048.716-.013.138-.025.274-.025.3s-.01.191-.025.364-.025.342-.025.377-.018.266-.04.515c-.043.507-.09,1.135-.1,1.419-.005.1-.023.309-.035.455a2.173,2.173,0,0,0-.015.319,1.012,1.012,0,0,1-.013.211c-.013.088-.03.294-.038.46s-.02.357-.023.427-.018.249-.025.4-.028.4-.04.553-.035.429-.05.615c-.083,1.027-.166,1.668-.392,3.027a15.8,15.8,0,0,1-1.452,4.973,16.693,16.693,0,0,1-1.442,2.258c-.485.683-1.035,1.482-1.035,1.51a.677.677,0,0,1-.07.121,4.088,4.088,0,0,0-.55,1.4,4.214,4.214,0,0,0,0,1.206,2.645,2.645,0,0,0,1.165,1.7,2.766,2.766,0,0,0,1.718.48,2.289,2.289,0,0,0,1.758-.824,6.447,6.447,0,0,0,1.434-2.333c.123-.344.163-.47.322-1.037a68.746,68.746,0,0,0,1.535-8.131c.261-1.9.422-3.306.515-4.433.111-1.351.517-6.928.648-8.882.02-.286.043-.53.053-.547s1.035-.028,3.888-.028h3.871l-.015.168c-.008.1-.038.339-.068.547-.281,2-.605,5.061-.879,8.289-.043.5-.093,1.1-.116,1.331-.073.794-.063,6.295.013,7.314a18.5,18.5,0,0,0,.9,4.956,7.886,7.886,0,0,0,.641,1.269,5.3,5.3,0,0,0,2.66,2.122,3.321,3.321,0,0,0,1.221.193,4.222,4.222,0,0,0,2.283-.457,6.615,6.615,0,0,0,1.713-1.238,8.467,8.467,0,0,0,2.208-4.044,25.394,25.394,0,0,0,.6-2.942l.018-.178H38.04c-.226,0-.452.008-.5.015l-.09.015-.083.382a3.989,3.989,0,0,1-.769,1.836,3.269,3.269,0,0,1-1.819,1.163,4.329,4.329,0,0,1-2.811-.312,3.915,3.915,0,0,1-2.019-2.547,5.423,5.423,0,0,1-.251-1.294c-.038-.578-.038-4.182,0-4.985.123-2.484.254-4.094.535-6.619.068-.61.332-2.735.424-3.4.04-.3.1-.761.141-1.03a4.517,4.517,0,0,1,.09-.522c.02-.023.8-.03,3.75-.03,2.047,0,3.758-.008,3.8-.015l.078-.015.015-1.5c.008-.824.018-1.814.025-2.2a2.639,2.639,0,0,0-.025-.8c-.025-.062-.055-.093-.088-.093a.1.1,0,0,1-.073-.045c-.023-.04-.45-.043-8.337-.048C25.464-1255.767,21.719-1255.767,21.714-1255.762Z" transform="translate(-7.1 1255.766)" fill="#0270ad"/>
      <path id="Path_128" data-name="Path 128" d="M764.4-604.551c0,.173,0,.244.008.156s0-.226,0-.314S764.4-604.724,764.4-604.551Z" transform="translate(-742.271 622.651)" fill="#0270ad"/>
      <path id="Path_129" data-name="Path 129" d="M763.2-566.461c0,.04.005.055.013.03a.189.189,0,0,0,0-.075C763.2-566.521,763.2-566.5,763.2-566.461Z" transform="translate(-741.1 585.378)" fill="#0270ad"/>
    </g>
  </g>
</svg>
