<svg xmlns="http://www.w3.org/2000/svg" width="81.364" height="32" viewBox="0 0 81.364 32">
  <g id="Group_65" data-name="Group 65" transform="translate(-592 -2036)">
    <path id="Path_136" data-name="Path 136" d="M.754-1.872A6.67,6.67,0,0,0,5.928.312c3.588,0,5.278-2.262,5.278-4.81,0-3.25-2.418-4.42-4.576-5.46-1.716-.832-3.25-1.586-3.25-3.224a2.613,2.613,0,0,1,2.808-2.6,4.7,4.7,0,0,1,3.588,1.534l1.092-1.56a6.245,6.245,0,0,0-4.628-1.82c-2.886,0-4.966,1.9-4.966,4.55,0,3.042,2.314,4.082,4.394,5.07C7.462-7.15,9.1-6.344,9.1-4.368c0,1.482-.988,2.834-3.172,2.834A5.314,5.314,0,0,1,1.9-3.458ZM13.13,4.914a4.506,4.506,0,0,0,1.248.182c1.482,0,2.5-.624,3.12-2.444l5.018-15.21h-2l-3.146,10.3-3.12-10.3H12.22L16.406.26,15.73,2.184c-.338.962-.754,1.248-1.482,1.248a2.009,2.009,0,0,1-.832-.182Zm10.244-6.37A5.332,5.332,0,0,0,27.612.312C30.186.312,31.8-1.2,31.8-3.276c0-2.574-2.028-3.354-3.77-4.056-1.326-.546-2.5-1.066-2.5-2.262,0-1.014.858-1.768,2.236-1.768A3.616,3.616,0,0,1,30.68-9.984l.884-1.274a5.028,5.028,0,0,0-3.822-1.612c-2.5,0-4,1.508-4,3.38,0,2.418,1.924,3.172,3.64,3.848C28.756-5.07,30-4.524,30-3.172c0,1.2-.962,1.976-2.418,1.976A4.332,4.332,0,0,1,24.31-2.782ZM37.336.312a2.7,2.7,0,0,0,2.028-.754l-.572-1.4a1.4,1.4,0,0,1-1.092.494c-.728,0-1.014-.546-1.014-1.508v-8.06h2.132v-1.638H36.686V-15.99H34.814v3.432H33.15v1.638h1.664v8.4C34.814-.65,35.62.312,37.336.312Z" transform="translate(634 2062)" fill="#fff"/>
    <g id="Path_135" data-name="Path 135" transform="translate(592 2036)" fill="#0c3c62">
      <path d="M 34 31.875 L 2 31.875 C 0.9661200046539307 31.875 0.125 31.03388023376465 0.125 30 L 0.125 2 C 0.125 0.9661200046539307 0.9661200046539307 0.125 2 0.125 L 34 0.125 C 35.03387832641602 0.125 35.875 0.9661200046539307 35.875 2 L 35.875 30 C 35.875 31.03388023376465 35.03387832641602 31.875 34 31.875 Z" stroke="none"/>
      <path d="M 2 0.25 C 1.035049438476562 0.25 0.25 1.035049438476562 0.25 2 L 0.25 30 C 0.25 30.96495056152344 1.035049438476562 31.75 2 31.75 L 34 31.75 C 34.96495056152344 31.75 35.75 30.96495056152344 35.75 30 L 35.75 2 C 35.75 1.035049438476562 34.96495056152344 0.25 34 0.25 L 2 0.25 M 2 0 L 34 0 C 35.10456848144531 0 36 0.8954296112060547 36 2 L 36 30 C 36 31.10457038879395 35.10456848144531 32 34 32 L 2 32 C 0.8954315185546875 32 0 31.10457038879395 0 30 L 0 2 C 0 0.8954296112060547 0.8954315185546875 0 2 0 Z" stroke="none" fill="#fff"/>
    </g>
    <g id="_151602" data-name="151602" transform="translate(597 2039)">
      <path id="Path_127" data-name="Path 127" d="M19.021-1255.763s-.852.013-1.883.021c-1.938.014-3.006.037-3.432.076a8.258,8.258,0,0,0-1.69.35,3.4,3.4,0,0,0-1.094.6c-.049.047-.2.186-.336.307a10.3,10.3,0,0,0-2.815,4.235c-.145.373-.547,1.565-.619,1.838l-.051.191h.811l.221-.354a11.506,11.506,0,0,1,1.4-1.877,4.122,4.122,0,0,1,1.77-1.188,7.1,7.1,0,0,1,2.34-.344l.635-.01.049.045c.045.043.047.057.035.2-.045.553-.057.69-.076.883-.012.119-.027.3-.031.4s-.016.236-.027.3-.018.127-.02.143c0,.111-.023.41-.039.584-.01.113-.02.223-.02.246s-.008.156-.02.3-.02.279-.02.307-.014.217-.033.42c-.035.414-.074.926-.084,1.158,0,.084-.018.252-.029.371a1.773,1.773,0,0,0-.012.26.825.825,0,0,1-.01.172c-.01.072-.025.24-.031.375s-.016.291-.018.348-.014.2-.02.328-.023.326-.033.451-.029.35-.041.5c-.068.838-.135,1.361-.32,2.469a12.886,12.886,0,0,1-1.184,4.057,13.621,13.621,0,0,1-1.176,1.842c-.4.557-.844,1.209-.844,1.232a.556.556,0,0,1-.057.1,3.335,3.335,0,0,0-.449,1.141,3.437,3.437,0,0,0,0,.983,2.158,2.158,0,0,0,.951,1.385,2.256,2.256,0,0,0,1.4.391,1.868,1.868,0,0,0,1.434-.672,5.259,5.259,0,0,0,1.17-1.9c.1-.281.133-.383.262-.846a56.084,56.084,0,0,0,1.252-6.632c.213-1.551.344-2.7.42-3.617.09-1.1.422-5.651.529-7.245.016-.234.035-.432.043-.447s.844-.023,3.172-.023h3.157l-.012.137c-.006.078-.031.277-.055.447-.229,1.633-.494,4.129-.717,6.761-.035.406-.076.894-.094,1.086-.059.647-.051,5.135.01,5.967a15.088,15.088,0,0,0,.731,4.043,6.431,6.431,0,0,0,.522,1.035,4.322,4.322,0,0,0,2.17,1.731,2.709,2.709,0,0,0,1,.158,3.443,3.443,0,0,0,1.863-.373,5.39,5.39,0,0,0,1.4-1.01,6.906,6.906,0,0,0,1.8-3.3,20.719,20.719,0,0,0,.492-2.4l.014-.145h-.336c-.184,0-.369.006-.41.012l-.074.012-.068.312a3.254,3.254,0,0,1-.627,1.5,2.665,2.665,0,0,1-1.483.949,3.53,3.53,0,0,1-2.293-.254,3.194,3.194,0,0,1-1.647-2.078,4.425,4.425,0,0,1-.2-1.055c-.031-.471-.031-3.411,0-4.067.1-2.026.207-3.34.436-5.4.055-.5.27-2.231.346-2.776.033-.242.084-.621.115-.84a3.685,3.685,0,0,1,.074-.426c.016-.018.654-.025,3.059-.025,1.67,0,3.065-.006,3.1-.012l.064-.012.012-1.223c.006-.672.014-1.479.02-1.8a2.152,2.152,0,0,0-.02-.65c-.02-.051-.045-.076-.072-.076a.079.079,0,0,1-.059-.037c-.018-.033-.367-.035-6.8-.039C22.08-1255.767,19.025-1255.767,19.021-1255.763Z" transform="translate(-7.1 1255.766)" fill="#fff"/>
      <path id="Path_128" data-name="Path 128" d="M764.4-604.586c0,.141,0,.2.006.127s0-.184,0-.256S764.4-604.728,764.4-604.586Z" transform="translate(-746.348 619.352)" fill="#fff"/>
      <path id="Path_129" data-name="Path 129" d="M763.2-566.47c0,.033,0,.045.01.025a.156.156,0,0,0,0-.062C763.2-566.519,763.2-566.505,763.2-566.47Z" transform="translate(-745.172 581.902)" fill="#fff"/>
    </g>
  </g>
</svg>
