<svg xmlns="http://www.w3.org/2000/svg" width="80" height="80" viewBox="0 0 80 80">
  <g id="Group_8" data-name="Group 8" transform="translate(-837 -1104)">
    <g id="Rectangle_16" data-name="Rectangle 16" transform="translate(837 1104)" fill="none" stroke="#fff" stroke-width="1">
      <rect width="80" height="80" stroke="none"/>
      <rect x="0.5" y="0.5" width="79" height="79" fill="none"/>
    </g>
    <g id="noun-mission-2191323" transform="translate(844 1093.002)">
      <g id="Group_7" data-name="Group 7" transform="translate(-4.263 14.998)">
        <path id="Path_43" data-name="Path 43" d="M46.624,35.656a1.828,1.828,0,1,0,0-3.656A14.624,14.624,0,1,0,61.248,46.624a1.828,1.828,0,1,0-3.656,0A10.968,10.968,0,1,1,46.624,35.656Z" transform="translate(-9.824 -10.063)" fill="#052e4f"/>
        <path id="Path_44" data-name="Path 44" d="M79.415,33.7a1.829,1.829,0,1,0-3.492,1.093A33.027,33.027,0,1,1,54.3,13.171a1.828,1.828,0,1,0,1.093-3.488A36.679,36.679,0,1,0,79.415,33.7Z" transform="translate(-7.737 -7.998)" fill="#052e4f"/>
        <path id="Path_45" data-name="Path 45" d="M49.073,22.081a1.977,1.977,0,0,0-1.828-1.989C46.7,20.045,46.152,20,45.592,20A25.592,25.592,0,1,0,71.183,45.592a16.186,16.186,0,0,0-.121-1.977,1.842,1.842,0,1,0-3.613.64c.039.443.079.884.079,1.337A21.936,21.936,0,1,1,45.592,23.656c.453,0,.893.041,1.335.079l.343.03a1.728,1.728,0,0,0,1.8-1.683Z" transform="translate(-8.792 -9.03)" fill="#052e4f"/>
        <path id="Path_46" data-name="Path 46" d="M58.8,24.8v6.555l-12.26,12.26A1.828,1.828,0,1,0,49.121,46.2l12.26-12.26h6.555a1.827,1.827,0,0,0,1.293-.536L80.2,22.432a1.828,1.828,0,0,0-1.292-3.12H73.42V13.828a1.828,1.828,0,0,0-3.12-1.292L59.331,23.5A1.827,1.827,0,0,0,58.8,24.8Zm3.656.757,7.312-7.312v2.9a1.827,1.827,0,0,0,1.828,1.828h2.9L67.179,30.28H62.452Z" transform="translate(-11.028 -8.342)" fill="#052e4f"/>
      </g>
      <g id="Group_9" data-name="Group 9" transform="translate(-4.263 14.998)">
        <path id="Path_43-2" data-name="Path 43" d="M46.624,35.656a1.828,1.828,0,1,0,0-3.656A14.624,14.624,0,1,0,61.248,46.624a1.828,1.828,0,1,0-3.656,0A10.968,10.968,0,1,1,46.624,35.656Z" transform="translate(-9.824 -10.063)" fill="#052e4f"/>
        <path id="Path_44-2" data-name="Path 44" d="M79.415,33.7a1.829,1.829,0,1,0-3.492,1.093A33.027,33.027,0,1,1,54.3,13.171a1.828,1.828,0,1,0,1.093-3.488A36.679,36.679,0,1,0,79.415,33.7Z" transform="translate(-7.737 -7.998)" fill="#052e4f"/>
        <path id="Path_45-2" data-name="Path 45" d="M49.073,22.081a1.977,1.977,0,0,0-1.828-1.989C46.7,20.045,46.152,20,45.592,20A25.592,25.592,0,1,0,71.183,45.592a16.186,16.186,0,0,0-.121-1.977,1.842,1.842,0,1,0-3.613.64c.039.443.079.884.079,1.337A21.936,21.936,0,1,1,45.592,23.656c.453,0,.893.041,1.335.079l.343.03a1.728,1.728,0,0,0,1.8-1.683Z" transform="translate(-8.792 -9.03)" fill="#052e4f"/>
        <path id="Path_46-2" data-name="Path 46" d="M58.8,24.8v6.555l-12.26,12.26A1.828,1.828,0,1,0,49.121,46.2l12.26-12.26h6.555a1.827,1.827,0,0,0,1.293-.536L80.2,22.432a1.828,1.828,0,0,0-1.292-3.12H73.42V13.828a1.828,1.828,0,0,0-3.12-1.292L59.331,23.5A1.827,1.827,0,0,0,58.8,24.8Zm3.656.757,7.312-7.312v2.9a1.827,1.827,0,0,0,1.828,1.828h2.9L67.179,30.28H62.452Z" transform="translate(-11.028 -8.342)" fill="#052e4f"/>
      </g>
    </g>
  </g>
</svg>
