<svg xmlns="http://www.w3.org/2000/svg" width="120.696" height="120.821" viewBox="0 0 120.696 120.821">
  <g id="mission" transform="translate(-595.135 -1902.35)">
    <path id="Path_48" data-name="Path 48" d="M673.118,1905.715s-33.871-14.22-61.982,13.627c-28.928,31.51-14.565,66.717-2.73,80.473,6.078,7.007,21.314,18.871,43.056,20.032,9.876.53,23.031-2.837,32.4-8.544,39.121-25.5,26.742-67.254,23.831-70.639" transform="translate(2.462 1.765)" fill="none" stroke="#052e4f" stroke-width="3"/>
    <path id="Path_49" data-name="Path 49" d="M644.514,1903.952c-5.177-.214-22.641-3.707-38.359,13.892-12.762,15.718-10.21,39.093-2.015,50.243,4.344,5.049,12.628,13.3,23.778,16.255,14.912,2.552,25.6-1.389,31.7-5.1,25.471-16.6,18.942-38.69,18.942-40.571" transform="translate(16.96 18.383)" fill="none" stroke="#052e4f" stroke-width="3"/>
    <path id="Path_50" data-name="Path 50" d="M623.292,1903.763c-2.85-.118-12.467-2.041-21.122,7.649-7.027,8.655-5.622,21.526-1.11,27.666,2.392,2.78,6.953,7.323,13.093,8.951,8.211,1.405,14.1-.765,17.458-2.811,14.025-9.143,10.43-21.3,10.43-22.34" transform="translate(35.39 36.722)" fill="none" stroke="#052e4f" stroke-width="3"/>
    <path id="Path_51" data-name="Path 51" d="M656.656,1938.21l-.806-10.274,17.867-18.136,1.343,9.941,11.285,1.612-16.658,17.6Z" transform="translate(20.33 2.043)" fill="none" stroke="#052e4f" stroke-width="3"/>
    <line id="Line_50" data-name="Line 50" y1="24.181" x2="24.181" transform="translate(652.871 1940.995)" fill="none" stroke="#052e4f" stroke-width="3"/>
  </g>
</svg>
