<svg xmlns="http://www.w3.org/2000/svg" width="80.5" height="80" viewBox="0 0 80.5 80">
  <g id="Group_8" data-name="Group 8" transform="translate(-837 -1104)">
    <g id="Rectangle_16" data-name="Rectangle 16" transform="translate(837 1104)" fill="none" stroke="#fff" stroke-width="1">
      <rect width="80" height="80" stroke="none"/>
      <rect x="0.5" y="0.5" width="79" height="79" fill="none"/>
    </g>
    <g id="noun-vision-1666109" transform="translate(837 1105.323)">
      <g id="Group_6" data-name="Group 6" transform="translate(1 8.677)">
        <path id="Path_38" data-name="Path 38" d="M80.332,38.358C70,23.567,56.308,15.305,41.682,14.966V9.609a.932.932,0,0,0-1.863,0v5.358c-14.626.338-28.322,8.6-38.651,23.39a.931.931,0,0,0,0,1.066C11.5,54.214,25.193,62.476,39.818,62.815v5.358a.932.932,0,0,0,1.863,0V62.815c14.627-.338,28.322-8.6,38.651-23.39A.933.933,0,0,0,80.332,38.358ZM29.591,32.994a3.415,3.415,0,0,1-2.585-3.332,3.457,3.457,0,0,1,3.453-3.453C35.6,26.21,34.533,34.41,29.591,32.994Zm.35,1.96a5.318,5.318,0,0,0,5.71-6.379,11.473,11.473,0,0,1,4.166-1.144V37.959H29.282A11.167,11.167,0,0,1,29.942,34.954Zm9.877,4.868V50.349a11.509,11.509,0,0,1-10.53-10.526Zm1.863,0H52.213A11.515,11.515,0,0,1,41.682,50.347Zm0-1.863V27.425A11.523,11.523,0,0,1,52.213,37.959ZM39.818,25.576a13.313,13.313,0,0,0-4.862,1.3,5.3,5.3,0,1,0-6.8,7.576,13,13,0,0,0-.732,3.513H18.7A22.094,22.094,0,0,1,39.82,16.838v8.738ZM27.425,39.822a13.367,13.367,0,0,0,12.393,12.39v8.733A22.094,22.094,0,0,1,18.7,39.822Zm14.257,12.39A13.374,13.374,0,0,0,54.076,39.824H62.8A22.094,22.094,0,0,1,41.682,60.946ZM54.076,37.959a13.379,13.379,0,0,0-12.395-12.4V16.837A22.094,22.094,0,0,1,62.8,37.959Zm-51,.932c6.735-9.464,14.894-16.08,23.762-19.473a23.923,23.923,0,0,0-10,18.541H11.468a.932.932,0,1,0,0,1.863h5.365a23.922,23.922,0,0,0,10,18.54C17.966,54.971,9.807,48.355,3.072,38.891ZM54.666,58.362a23.922,23.922,0,0,0,10-18.54h5.364a.932.932,0,0,0,0-1.863H64.667a23.927,23.927,0,0,0-10-18.541c8.868,3.392,17.027,10.008,23.762,19.473C71.693,48.355,63.534,54.971,54.666,58.362Z" transform="translate(-1 -8.677)" fill="#052e4f"/>
        <path id="Path_39" data-name="Path 39" d="M53.74,10.54h8.254v8.254a.932.932,0,1,0,1.863,0V9.609a.932.932,0,0,0-.932-.932H53.74a.932.932,0,0,0,0,1.863Z" transform="translate(11.547 -8.677)" fill="#052e4f"/>
        <path id="Path_40" data-name="Path 40" d="M5.228,19.726a.932.932,0,0,0,.932-.932V10.54h8.254a.932.932,0,0,0,0-1.863H5.228a.932.932,0,0,0-.932.932v9.186A.932.932,0,0,0,5.228,19.726Z" transform="translate(-0.202 -8.677)" fill="#052e4f"/>
        <path id="Path_41" data-name="Path 41" d="M14.414,57.614H6.159V49.36a.932.932,0,0,0-1.863,0v9.186a.932.932,0,0,0,.932.932h9.186a.932.932,0,0,0,0-1.863Z" transform="translate(-0.202 0.95)" fill="#052e4f"/>
        <path id="Path_42" data-name="Path 42" d="M62.926,48.428a.932.932,0,0,0-.932.932v8.254H53.74a.932.932,0,0,0,0,1.863h9.186a.932.932,0,0,0,.932-.932V49.36A.932.932,0,0,0,62.926,48.428Z" transform="translate(11.547 0.95)" fill="#052e4f"/>
      </g>
    </g>
  </g>
</svg>
