<svg xmlns="http://www.w3.org/2000/svg" width="147.313" height="113.968" viewBox="0 0 147.313 113.968">
  <g id="vision" transform="translate(-225.491 -1626.533)">
    <path id="Path_39" data-name="Path 39" d="M227.2,1717.314c1.08-2.789,30.831-43.577,71.979-44.387,16.915-1.35,56.743,14.006,71.979,44.387-2.279,5.608-26.992,41.118-71.979,42.588C260.43,1757.952,240.036,1733.48,227.2,1717.314Z" transform="translate(0 -33.797)" fill="none" stroke="#052e4f" stroke-width="3"/>
    <g id="Ellipse_16" data-name="Ellipse 16" transform="translate(255 1639)" fill="none" stroke="#052e4f" stroke-width="3">
      <ellipse cx="44.5" cy="43.5" rx="44.5" ry="43.5" stroke="none"/>
      <ellipse cx="44.5" cy="43.5" rx="43" ry="42" fill="none"/>
    </g>
    <g id="Subtraction_6" data-name="Subtraction 6" transform="translate(213 1645)" fill="none">
      <path d="M86.5,62a23.925,23.925,0,0,1-9.536-1.965,24.4,24.4,0,0,1-7.788-5.358A25.1,25.1,0,0,1,62,37a25.447,25.447,0,0,1,1.189-7.714A10.4,10.4,0,0,0,67,30a9.771,9.771,0,0,0,10-9.5,9.115,9.115,0,0,0-1.934-5.617,24.154,24.154,0,0,1,28.758,4.439,25.363,25.363,0,0,1,0,35.355,24.4,24.4,0,0,1-7.788,5.358A23.927,23.927,0,0,1,86.5,62Z" stroke="none"/>
      <path d="M 86.49990081787109 59.00009918212891 C 89.39626312255859 59.00009918212891 92.20488739013672 58.42172241210938 94.8477783203125 57.28102111816406 C 97.40607452392578 56.17684173583984 99.70523834228516 54.59445953369141 101.6814346313477 52.57785034179688 C 105.7558288574219 48.42012023925781 107.9997024536133 42.88776016235352 107.9997024536133 36.99990081787109 C 107.9997024536133 31.11205101013184 105.7558288574219 25.57969093322754 101.6814193725586 21.42194175720215 C 99.70526885986328 19.40536117553711 97.40608978271484 17.82299041748047 94.8477783203125 16.71879005432129 C 92.20484924316406 15.57809066772461 89.39621734619141 14.99970054626465 86.49990081787109 14.99970054626465 C 84.02445983886719 14.99970054626465 81.56171417236328 15.43972492218018 79.24592590332031 16.28587913513184 C 79.74394226074219 17.62381935119629 80.00040435791016 19.04305076599121 80.00040435791016 20.50020027160645 C 80.00040435791016 27.3924503326416 74.16827392578125 32.99970245361328 66.99960327148438 32.99970245361328 C 66.45179748535156 32.99970245361328 65.90861511230469 32.96733474731445 65.37174224853516 32.90291213989258 C 65.12469482421875 34.24642944335938 65.00009918212891 35.61668014526367 65.00009918212891 36.99990081787109 C 65.00009918212891 42.88764953613281 67.24407958984375 48.41999053955078 71.31868743896484 52.57783126831055 C 73.29493713378906 54.59445953369141 75.59413909912109 56.17684173583984 78.15242004394531 57.28103256225586 C 80.79525756835938 58.42172241210938 83.603759765625 59.00009918212891 86.49990081787109 59.00009918212891 M 86.49990081787109 62.00009918212891 C 83.19252777099609 62.00009918212891 79.98405456542969 61.3390998840332 76.96357727050781 60.03541946411133 C 74.04618072509766 58.77622985839844 71.42606353759766 56.97359085083008 69.17603302001953 54.67758941650391 C 64.54856109619141 49.95560073852539 62.00009918212891 43.67753982543945 62.00009918212891 36.99990081787109 C 62.00009918212891 34.36407089233398 62.40005111694336 31.76855087280273 63.1888313293457 29.28542137145996 C 64.39771270751953 29.75917053222656 65.67939758300781 29.99970054626465 66.99960327148438 29.99970054626465 C 72.51406097412109 29.99970054626465 77.00040435791016 25.73824119567871 77.00040435791016 20.50020027160645 C 77.00040435791016 18.46284103393555 76.33160400390625 16.5206413269043 75.06629180908203 14.8835506439209 C 78.56485748291016 12.99641036987305 82.5184326171875 11.99970054626465 86.49990081787109 11.99970054626465 C 89.80748748779297 11.99970054626465 93.01609039306641 12.66072082519531 96.03659820556641 13.96439075469971 C 98.95404815673828 15.22360038757324 101.5741500854492 17.02622032165527 103.8241119384766 19.32221031188965 C 108.4513626098633 24.04411125183105 110.9997024536133 30.3221607208252 110.9997024536133 36.99990081787109 C 110.9997024536133 43.67763900756836 108.4513626098633 49.9556999206543 103.8241119384766 54.67758941650391 C 101.5741500854492 56.97357940673828 98.95404815673828 58.77622222900391 96.03659820556641 60.03541946411133 C 93.01609039306641 61.3390998840332 89.80748748779297 62.00009918212891 86.49990081787109 62.00009918212891 Z" stroke="none" fill="#052e4f"/>
    </g>
    <line id="Line_27" data-name="Line 27" x2="110.968" transform="translate(244.145 1682.017)" fill="none" stroke="#052e4f" stroke-width="3"/>
    <line id="Line_28" data-name="Line 28" y1="112.467" transform="translate(299.629 1626.533)" fill="none" stroke="#052e4f" stroke-width="3"/>
    <line id="Line_29" data-name="Line 29" x2="18.295" transform="translate(226.848 1628.783)" fill="none" stroke="#052e4f" stroke-width="3"/>
    <line id="Line_31" data-name="Line 31" x2="18.295" transform="translate(351.965 1628.033)" fill="none" stroke="#052e4f" stroke-width="3"/>
    <line id="Line_36" data-name="Line 36" x2="18.295" transform="translate(351.965 1737.501)" fill="none" stroke="#052e4f" stroke-width="3"/>
    <line id="Line_33" data-name="Line 33" x2="18.295" transform="translate(227.848 1739)" fill="none" stroke="#052e4f" stroke-width="3"/>
    <line id="Line_30" data-name="Line 30" y1="20" transform="translate(228 1627)" fill="none" stroke="#052e4f" stroke-width="3"/>
    <line id="Line_32" data-name="Line 32" y1="19.494" transform="translate(370.11 1626.533)" fill="none" stroke="#052e4f" stroke-width="3"/>
    <line id="Line_35" data-name="Line 35" y1="19.494" transform="translate(370.11 1719.506)" fill="none" stroke="#052e4f" stroke-width="3"/>
    <line id="Line_34" data-name="Line 34" y1="19.494" transform="translate(227.848 1721.006)" fill="none" stroke="#052e4f" stroke-width="3"/>
    <g id="Ellipse_19" data-name="Ellipse 19" transform="translate(270 1655)" fill="#fff" stroke="#052e4f" stroke-width="3">
      <circle cx="11.5" cy="11.5" r="11.5" stroke="none"/>
      <circle cx="11.5" cy="11.5" r="10" fill="none"/>
    </g>
  </g>
</svg>
