<svg xmlns="http://www.w3.org/2000/svg" viewBox="0 0 16 16" id="android"><g fill="#8BC34A"><path d="M2 6a1 1 0 0 0-1 1v4a1 1 0 0 0 2 0V7a1 1 0 0 0-1-1zM14 6a1 1 0 0 0-1 1v4a1 1 0 0 0 2 0V7a1 1 0 0 0-1-1zM4 12.058a1 1 0 0 0 1 1V15a1 1 0 0 0 2 0v-1.942h2V15a1 1 0 0 0 2 0v-1.942a1 1 0 0 0 1-1v-6H4v6zM10.496 1.897l.89-1.079a.5.5 0 1 0-.771-.637L9.642 1.36A3.97 3.97 0 0 0 8 1c-.595 0-1.155.138-1.662.372L5.391.188a.5.5 0 0 0-.781.625l.878 1.098A3.972 3.972 0 0 0 4 5h8c0-1.26-.594-2.37-1.504-3.103zM7 3.5a.5.5 0 1 1 0-1 .5.5 0 0 1 0 1zm2 0a.5.5 0 1 1 0-1 .5.5 0 0 1 0 1z"></path></g></svg>