<svg xmlns="http://www.w3.org/2000/svg" width="289" height="223.5" viewBox="0 0 289 223.5">
  <g id="Group_20" data-name="Group 20" transform="translate(-1109 -549)">
    <g id="Rectangle_28" data-name="Rectangle 28" transform="translate(1109 549)" fill="none" stroke="#fff" stroke-width="3">
      <rect width="289" height="193" rx="6" stroke="none"/>
      <rect x="1.5" y="1.5" width="286" height="190" rx="4.5" fill="none"/>
    </g>
    <line id="Line_9" data-name="Line 9" x2="286.86" transform="translate(1109.527 572.729)" fill="none" stroke="#fff" stroke-width="3"/>
    <line id="Line_10" data-name="Line 10" x2="286.86" transform="translate(1109.527 707.722)" fill="none" stroke="#fff" stroke-width="3"/>
    <line id="Line_11" data-name="Line 11" x2="124.447" transform="translate(1191.789 771)" fill="none" stroke="#fff" stroke-width="3"/>
    <line id="Line_12" data-name="Line 12" y2="31.639" transform="translate(1225.537 739.361)" fill="none" stroke="#fff" stroke-width="3"/>
    <line id="Line_13" data-name="Line 13" y2="31.639" transform="translate(1281.432 739.361)" fill="none" stroke="#fff" stroke-width="3"/>
    <g id="Ellipse_10" data-name="Ellipse 10" transform="translate(1123 716)" fill="none" stroke="#fff" stroke-width="2">
      <circle cx="8.5" cy="8.5" r="8.5" stroke="none"/>
      <circle cx="8.5" cy="8.5" r="7.5" fill="none"/>
    </g>
    <g id="Ellipse_11" data-name="Ellipse 11" transform="translate(1146 716)" fill="none" stroke="#fff" stroke-width="2">
      <circle cx="8.5" cy="8.5" r="8.5" stroke="none"/>
      <circle cx="8.5" cy="8.5" r="7.5" fill="none"/>
    </g>
    <g id="Ellipse_12" data-name="Ellipse 12" transform="translate(1169 716)" fill="none" stroke="#fff" stroke-width="2">
      <circle cx="8.5" cy="8.5" r="8.5" stroke="none"/>
      <circle cx="8.5" cy="8.5" r="7.5" fill="none"/>
    </g>
    <g id="Group_21" data-name="Group 21" transform="translate(0 -3)">
      <path id="chevron-left" d="M23.97,35.94,9,20.97,23.97,6" transform="translate(1121.534 589.753)" fill="none" stroke="#fff" stroke-linecap="round" stroke-linejoin="round" stroke-width="3"/>
      <path id="chevron-left-2" data-name="chevron-left" d="M9,35.94,23.97,20.97,9,6" transform="translate(1162.03 589.753)" fill="none" stroke="#fff" stroke-linecap="round" stroke-linejoin="round" stroke-width="3"/>
      <line id="Line_14" data-name="Line 14" y1="41.133" x2="14.56" transform="translate(1151.01 589.974)" fill="none" stroke="#fff" stroke-width="3"/>
    </g>
    <g id="Group_22" data-name="Group 22" transform="translate(60.466 63)">
      <path id="chevron-left-3" data-name="chevron-left" d="M24.867,37.733,9,21.867,24.867,6" transform="translate(1121.534 590.099)" fill="none" stroke="#fff" stroke-linecap="round" stroke-linejoin="round" stroke-width="3"/>
      <path id="chevron-left-4" data-name="chevron-left" d="M9,37.733,24.867,21.867,9,6" transform="translate(1164.456 590.099)" fill="none" stroke="#fff" stroke-linecap="round" stroke-linejoin="round" stroke-width="3"/>
      <line id="Line_14-2" data-name="Line 14" y1="43.597" x2="15.433" transform="translate(1152.236 589.974)" fill="none" stroke="#fff" stroke-width="3"/>
    </g>
    <line id="Line_15" data-name="Line 15" x2="119" transform="translate(1130.5 641.5)" fill="none" stroke="#fff" stroke-width="3"/>
    <line id="Line_16" data-name="Line 16" x2="51" transform="translate(1130.5 692.5)" fill="none" stroke="#fff" stroke-width="3"/>
    <line id="Line_17" data-name="Line 17" x2="87" transform="translate(1289.5 593.5)" fill="none" stroke="#fff" stroke-width="3"/>
    <line id="Line_18" data-name="Line 18" x2="63" transform="translate(1313.5 612.5)" fill="none" stroke="#fff" stroke-width="3"/>
    <line id="Line_19" data-name="Line 19" x2="87" transform="translate(1289.5 631.5)" fill="none" stroke="#fff" stroke-width="3"/>
    <line id="Line_20" data-name="Line 20" x2="78" transform="translate(1298.5 650.5)" fill="none" stroke="#fff" stroke-width="3"/>
    <line id="Line_21" data-name="Line 21" x2="43" transform="translate(1333.5 669.5)" fill="none" stroke="#fff" stroke-width="3"/>
    <line id="Line_22" data-name="Line 22" x2="86.5" transform="translate(1289.5 688.5)" fill="none" stroke="#fff" stroke-width="3"/>
  </g>
</svg>
