<svg xmlns="http://www.w3.org/2000/svg" width="179.087" height="222" viewBox="0 0 179.087 222">
  <g id="mobile-app" transform="translate(-754 -523)">
    <g id="Path_28" data-name="Path 28" transform="translate(754 523)" fill="none">
      <path d="M17.344,0H116.2a17.344,17.344,0,0,1,17.344,17.344l.2,111.347s-3.454-3.068-8.614-8.314c-9.062-9.138-14.547-9.138-18.883-9.051a17.544,17.544,0,0,0-10.71,4.466,19.7,19.7,0,0,0-5.8,8.983,17.307,17.307,0,0,0,2.934,15.212c3.292,4.748,9.12,10.413,14.7,15.79,6.123,6.153,7.956,7.441,11.177,11.207-1.487,3.271-3.667,6.888-7.253,14.866a124.315,124.315,0,0,0-5.185,19.9,54.389,54.389,0,0,0-1.041,12.413c-.347,5.253,2.064,7.73-.347,7.73L17.344,222A17.344,17.344,0,0,1,0,204.656V17.344A17.344,17.344,0,0,1,17.344,0Z" stroke="none"/>
      <path d="M 17.34373474121094 3 C 13.51239013671875 3 9.910362243652344 4.49200439453125 7.201171875 7.201187133789062 C 4.491989135742188 9.910369873046875 2.999984741210938 13.51240539550781 2.999984741210938 17.34375 L 2.999984741210938 204.65625 C 2.999984741210938 208.4875946044922 4.491989135742188 212.0896301269531 7.201171875 214.7988128662109 C 9.910362243652344 217.5079956054688 13.51239013671875 219 17.33992004394531 219 L 102.3915863037109 218.8915100097656 C 102.1654434204102 217.6568145751953 101.9663925170898 216.07421875 102.0726318359375 214.1615753173828 C 101.7317428588867 208.440673828125 103.0174026489258 201.9372253417969 103.1700210571289 201.1913452148438 C 103.3372268676758 200.2103729248047 105.2302322387695 189.3507995605469 108.5006103515625 180.7797546386719 L 108.531608581543 180.6985015869141 L 108.567268371582 180.6191864013672 C 110.8203277587891 175.6071929931641 112.5000152587891 172.3427429199219 113.8497009277344 169.7197265625 C 114.2737579345703 168.8955841064453 114.6508636474609 168.1626892089844 114.9911727905273 167.4811859130859 C 113.7216796875 166.1004028320312 112.5453720092773 164.9775848388672 110.9641418457031 163.4682159423828 C 109.5281219482422 162.0975036621094 107.7419128417969 160.3924865722656 105.2742309570312 157.9132843017578 C 100.1554946899414 152.9801635742188 93.79621887207031 146.8489685058594 90.23368072509766 141.7215881347656 C 84.11418914794922 133.2799987792969 86.49951171875 125.0422515869141 86.88104248046875 123.8833160400391 C 87.13406372070312 123.0139923095703 88.91170501708984 117.396125793457 93.61763000488281 113.4900207519531 C 97.45923614501953 110.2646942138672 101.044189453125 108.7714691162109 105.9894256591797 108.3367156982422 L 106.0906448364258 108.3278121948242 L 106.192268371582 108.3257827758789 C 106.580451965332 108.3180313110352 106.9962387084961 108.3104705810547 107.4356689453125 108.3104705810547 C 112.6080474853516 108.3104705810547 118.5902328491211 109.5163116455078 127.2652969360352 118.2639999389648 L 127.2740478515625 118.2729034423828 C 128.5393524169922 119.559455871582 129.7032928466797 120.7155303955078 130.7365417480469 121.7250823974609 L 130.5468597412109 17.34375 C 130.5468597412109 13.51240539550781 129.0548553466797 9.910369873046875 126.3456726074219 7.201187133789062 C 123.6364898681641 4.49200439453125 120.0344543457031 3 116.2031097412109 3 L 17.34373474121094 3 M 17.34373474121094 0 L 116.2031097412109 0 C 125.7817993164062 0 133.5468597412109 7.765060424804688 133.5468597412109 17.34375 L 133.7492065429688 128.6906280517578 C 133.7492065429688 128.6906280517578 130.294921875 125.6229400634766 125.135139465332 120.3764724731445 C 116.0730209350586 111.2384719848633 110.5880889892578 111.2385559082031 106.2521438598633 111.3251876831055 C 102.3064575195312 111.6720657348633 99.19905090332031 112.7199096679688 95.5423583984375 115.7912216186523 C 91.20570373535156 119.3853759765625 89.74667358398438 124.773811340332 89.74667358398438 124.773811340332 C 89.74667358398438 124.773811340332 87.05323791503906 132.24609375 92.68067169189453 139.9857177734375 C 95.97286224365234 144.7335968017578 101.8006134033203 150.3992156982422 107.3794860839844 155.7757873535156 C 113.5024566650391 161.9286804199219 115.3359222412109 163.2171020507812 118.5569229125977 166.9831237792969 C 117.0702972412109 170.2536926269531 114.8899230957031 173.87109375 111.3035125732422 181.8492126464844 C 108.0159530639648 190.4653472900391 106.1189880371094 201.7449645996094 106.1189880371094 201.7449645996094 C 106.1189880371094 201.7449645996094 104.7032699584961 208.5060882568359 105.0783309936523 214.1581268310547 C 104.7314529418945 219.4108123779297 107.1420440673828 221.8885345458984 104.7314529418945 221.8885345458984 L 17.34373474121094 222 C 7.765045166015625 222 -1.52587890625e-05 214.2349395751953 -1.52587890625e-05 204.65625 L -1.52587890625e-05 17.34375 C -1.52587890625e-05 7.765060424804688 7.765045166015625 0 17.34373474121094 0 Z" stroke="none" fill="#fff"/>
    </g>
    <line id="Line_7" data-name="Line 7" x2="131.813" transform="translate(754.217 548.365)" fill="none" stroke="#fff" stroke-width="3"/>
    <g id="Rectangle_14" data-name="Rectangle 14" transform="translate(770 560)" fill="none" stroke="#fff" stroke-width="3">
      <rect width="29" height="30" rx="4" stroke="none"/>
      <rect x="1.5" y="1.5" width="26" height="27" rx="2.5" fill="none"/>
    </g>
    <g id="Rectangle_19" data-name="Rectangle 19" transform="translate(770 597)" fill="none" stroke="#fff" stroke-width="3">
      <rect width="29" height="30" rx="4" stroke="none"/>
      <rect x="1.5" y="1.5" width="26" height="27" rx="2.5" fill="none"/>
    </g>
    <g id="Rectangle_22" data-name="Rectangle 22" transform="translate(770 634)" fill="none" stroke="#fff" stroke-width="3">
      <rect width="29" height="30" rx="4" stroke="none"/>
      <rect x="1.5" y="1.5" width="26" height="27" rx="2.5" fill="none"/>
    </g>
    <g id="Rectangle_24" data-name="Rectangle 24" transform="translate(770 671)" fill="none" stroke="#fff" stroke-width="3">
      <rect width="29" height="30" rx="4" stroke="none"/>
      <rect x="1.5" y="1.5" width="26" height="27" rx="2.5" fill="none"/>
    </g>
    <g id="Rectangle_15" data-name="Rectangle 15" transform="translate(806 560)" fill="none" stroke="#fff" stroke-width="3">
      <rect width="30" height="30" rx="4" stroke="none"/>
      <rect x="1.5" y="1.5" width="27" height="27" rx="2.5" fill="none"/>
    </g>
    <g id="Rectangle_18" data-name="Rectangle 18" transform="translate(806 597)" fill="none" stroke="#fff" stroke-width="3">
      <rect width="30" height="30" rx="4" stroke="none"/>
      <rect x="1.5" y="1.5" width="27" height="27" rx="2.5" fill="none"/>
    </g>
    <g id="Rectangle_21" data-name="Rectangle 21" transform="translate(806 634)" fill="none" stroke="#fff" stroke-width="3">
      <rect width="30" height="30" rx="4" stroke="none"/>
      <rect x="1.5" y="1.5" width="27" height="27" rx="2.5" fill="none"/>
    </g>
    <g id="Rectangle_23" data-name="Rectangle 23" transform="translate(806 671)" fill="none" stroke="#fff" stroke-width="3">
      <rect width="30" height="30" rx="4" stroke="none"/>
      <rect x="1.5" y="1.5" width="27" height="27" rx="2.5" fill="none"/>
    </g>
    <g id="Rectangle_16" data-name="Rectangle 16" transform="translate(843 560)" fill="none" stroke="#fff" stroke-width="3">
      <rect width="29" height="30" rx="4" stroke="none"/>
      <rect x="1.5" y="1.5" width="26" height="27" rx="2.5" fill="none"/>
    </g>
    <g id="Rectangle_17" data-name="Rectangle 17" transform="translate(843 597)" fill="none" stroke="#fff" stroke-width="3">
      <rect width="29" height="30" rx="4" stroke="none"/>
      <rect x="1.5" y="1.5" width="26" height="27" rx="2.5" fill="none"/>
    </g>
    <line id="Line_8" data-name="Line 8" x2="99.727" transform="translate(754.217 710.963)" fill="none" stroke="#fff" stroke-width="3"/>
    <g id="Rectangle_25" data-name="Rectangle 25" transform="translate(819 723)" fill="none" stroke="#fff" stroke-width="1">
      <rect width="8" height="7" stroke="none"/>
      <rect x="0.5" y="0.5" width="7" height="6" fill="none"/>
    </g>
    <g id="Rectangle_26" data-name="Rectangle 26" transform="translate(806 723)" fill="none" stroke="#fff" stroke-width="1">
      <rect width="8" height="7" stroke="none"/>
      <rect x="0.5" y="0.5" width="7" height="6" fill="none"/>
    </g>
    <path id="Path_26" data-name="Path 26" d="M1070.6,723.92l15.124,13.459s8.047,7.215,10.129,9.99c3.469,3.7,7.492,11.794,7.7,16.962.463,4.856.416,12.592.416,12.592v82.313" transform="translate(-172.387 -114.236)" fill="none" stroke="#fff" stroke-width="3"/>
    <path id="Path_27" data-name="Path 27" d="M1012.1,821.387s-28.6-28.6-35.555-35.5c-5.394-4.128-9.834-8.013-19.755-6.278-6.1,1.249-15.263,8.256-14.777,19.286.416,9.227,7.909,14.846,12.973,20.4,3.608,4.024,6.383,6.174,9.921,9.99,2.516,2.277,4.326,4.2,6.458,6.336.017.328-1.18,2-1.2,2.445a77.3,77.3,0,0,0-8.313,19.42c-.855,3.226-5.606,18.4-3.209,32.248" transform="translate(-99.545 -145.537)" fill="none" stroke="#fff" stroke-width="3"/>
  </g>
</svg>
