<svg xmlns="http://www.w3.org/2000/svg" width="230.742" height="248.023" viewBox="0 0 230.742 248.023">
  <g id="Group_24" data-name="Group 24" transform="translate(-804.962 -967.425)">
    <path id="Path_32" data-name="Path 32" d="M821.227,1137.868c-6.831-8.744-31.149-64.21,4.1-116.945,34.428-52.188,85.523-51.368,95.632-51.915,8.2-.547,67.865,1.366,100.106,60.112,26.094,51.5,7.1,94.13-.581,108.748" transform="translate(-0.189 0)" fill="none" stroke="#fff" stroke-width="3"/>
    <path id="Path_33" data-name="Path 33" d="M1028.9,968.949s74.882,38.143,63.816,130.633" transform="translate(-108.462 0)" fill="none" stroke="#fff" stroke-width="3"/>
    <path id="Path_34" data-name="Path 34" d="M1093.833,968.949s-74.881,38.142-63.815,130.63" transform="translate(-173.393 0.548)" fill="none" stroke="#fff" stroke-width="3"/>
    <path id="Path_35" data-name="Path 35" d="M1.5,0C2.328,0,3,.344,3,.768V123.212c0,.424-.672.768-1.5.768s-1.5-.344-1.5-.768V.768C0,.344.672,0,1.5,0Z" transform="translate(919.978 968.975)" fill="#fff"/>
    <line id="Line_25" data-name="Line 25" x2="196.729" transform="translate(821.87 1025.586)" fill="none" stroke="#fff" stroke-width="3"/>
    <line id="Line_26" data-name="Line 26" x2="227.884" transform="translate(806.597 1082.965)" fill="none" stroke="#fff" stroke-width="3"/>
    <g id="Group_26" data-name="Group 26" transform="translate(827.249 1100.127)">
      <path id="Path_36" data-name="Path 36" d="M536.825,1345.4c-.144-7.8,1.216-14.714-3.857-20.529-2.773-3.717-9.312-7.645-17.922-9.615-8.719-3.028-8.755-2.7-13.57-4.451a8.99,8.99,0,0,1-2.845-6.056l-.438-5.691S513,1287.57,513.3,1261.3c-.73-26.266-22.508-29.95-28.892-29.4-10.1-.182-25.645,7.77-27.25,25.5-.438,16.124,1.605,27.177,14.446,41.113.219,9.412-1.094,11.017-4.6,12.695-10.342,3.3-25.226,5.782-30.114,14.026-5.764,9.266-3.575,19.553-3.575,19.553S512.383,1345.524,536.825,1345.4Z" transform="translate(-391.449 -1231.853)" fill="none" stroke="#fff" stroke-width="3"/>
      <path id="Path_37" data-name="Path 37" d="M386.744,1353.22s11.864-6.756,13.049-27.367c0-21.888-18.97-23.53-24.442-22.07-4.735.965-15.413,5.745-16.454,21.227.585,14.159,6.468,20.862,10.336,26.266,2.242,6.179-1.68,8-1.68,8s-6.384,2.1-14.736,4.279c-5.875,1.832-9.242,5.35-9.85,8.755s-.973,11.1-.973,11.1a.865.865,0,0,0,.973.973h33.288" transform="translate(-341.991 -1270.558)" fill="none" stroke="#fff" stroke-width="3"/>
      <path id="Path_38" data-name="Path 38" d="M355.04,1353.22s-11.864-6.756-13.049-27.367c0-21.888,18.97-23.53,24.442-22.07,4.735.965,15.413,5.745,16.454,21.227-.585,14.159-6.468,20.862-10.336,26.266-2.242,6.179,1.68,8,1.68,8s6.384,2.1,14.736,4.279c5.875,1.832,9.242,5.35,9.85,8.755s.973,11.1.973,11.1a.865.865,0,0,1-.973.973H365.528" transform="translate(-213.054 -1270.558)" fill="none" stroke="#fff" stroke-width="3"/>
    </g>
  </g>
</svg>
