<svg xmlns="http://www.w3.org/2000/svg" width="76" height="76" viewBox="0 0 76 76">
  <g id="photoshop" transform="translate(-6 -6)">
    <path id="Path_131" data-name="Path 131" d="M69.333,6H18.667A12.666,12.666,0,0,0,6,18.667V69.333A12.666,12.666,0,0,0,18.667,82H69.333A12.666,12.666,0,0,0,82,69.333V18.667A12.666,12.666,0,0,0,69.333,6Z" transform="translate(0 0)" fill="#50e6ff"/>
    <path id="Path_132" data-name="Path 132" d="M67.111,75.556H16.444A8.445,8.445,0,0,1,8,67.111V16.444A8.445,8.445,0,0,1,16.444,8H67.111a8.445,8.445,0,0,1,8.444,8.444V67.111A8.445,8.445,0,0,1,67.111,75.556Z" transform="translate(2.222 2.222)" fill="#092347"/>
    <path id="Path_133" data-name="Path 133" d="M14.507,15.752a.435.435,0,0,1,.384-.437,81.357,81.357,0,0,1,8.227-.285c7.575,0,12.88,3,12.88,11.225C36,33.669,30.95,38.02,22.806,38.02H20.239V50.438a.377.377,0,0,1-.376.376H14.885a.377.377,0,0,1-.376-.376V15.752ZM20.239,32.8s2.506.017,3.072.017c4.651,0,6.766-2.757,6.766-6.452,0-3.46-2.056-6.158-6.354-6.158-1.771,0-3.481.1-3.481.1V32.8Z" transform="translate(9.452 10.033)" fill="#fff"/>
    <path id="Path_134" data-name="Path 134" d="M26.156,39.728a.25.25,0,0,1,.384-.215,11.5,11.5,0,0,0,6.568,1.93c2.183,0,3.564-.939,3.564-2.472,0-1.7-2.333-2.928-4.258-3.973S26.2,32.29,26.2,26.92c0-4.761,3.8-7.632,8.985-7.632a17.979,17.979,0,0,1,5.651.847.611.611,0,0,1,.391.585v4.837a.245.245,0,0,1-.376.217,10.892,10.892,0,0,0-5.782-1.533c-2.341,0-3.371,1.14-3.371,2.3,0,2.035,2.711,2.886,5.143,4.313,3.794,2.111,5.552,4.174,5.552,7.406,0,5.286-3.941,8.254-9.28,8.254a14.253,14.253,0,0,1-6.675-1.408.6.6,0,0,1-.277-.53Z" transform="translate(22.396 14.764)" fill="#fff"/>
  </g>
</svg>
