<svg xmlns="http://www.w3.org/2000/svg" width="253" height="245" viewBox="0 0 253 245">
  <g id="Group_23" data-name="Group 23" transform="translate(-1249 -599)">
    <g id="Subtraction_5" data-name="Subtraction 5" transform="translate(1336 629)" fill="none">
      <path d="M142,136H83.66c.072-1.4.109-2.828.109-4.247A80.357,80.357,0,0,0,17,52.218V47a6.007,6.007,0,0,0-6-6H0V-6A23.844,23.844,0,0,1,7.03-22.971,23.842,23.842,0,0,1,24-30H142a23.847,23.847,0,0,1,16.971,7.029A23.846,23.846,0,0,1,166-6V112a24,24,0,0,1-24,24Z" stroke="none"/>
      <path d="M 141.9992980957031 133.0008392333984 C 147.6087493896484 133.0008392333984 152.8825836181641 130.8162841796875 156.8493041992188 126.8496170043945 C 160.8153991699219 122.8835220336914 162.9996185302734 117.6100006103516 162.9996185302734 112.0005035400391 L 162.9996185302734 -5.999403953552246 C 162.9996185302734 -11.60871315002441 160.8153228759766 -16.88259506225586 156.8494873046875 -20.84914207458496 C 152.8824920654297 -24.81535720825195 147.6085815429688 -26.99966621398926 141.9992980957031 -26.99966621398926 L 24.00030136108398 -26.99966621398926 C 18.39082527160645 -26.99966621398926 13.11730194091797 -24.81545066833496 9.151206016540527 -20.84933280944824 C 5.184539794921875 -16.8826904296875 2.99999213218689 -11.60888004302979 2.99999213218689 -5.999403953552246 L 2.99999213218689 38.00038146972656 L 10.99980163574219 38.00038146972656 C 15.96258735656738 38.00038146972656 20.0001106262207 42.03750228881836 20.0001106262207 46.99978637695312 L 20.0001106262207 49.72652816772461 C 58.84160995483398 57.58271789550781 86.76839447021484 91.68046569824219 86.76839447021484 131.7537078857422 C 86.76839447021484 132.1683349609375 86.76535034179688 132.5844116210938 86.75927734375 133.0008392333984 L 141.9992980957031 133.0008392333984 M 141.9992980957031 136.0008392333984 L 83.65949249267578 136.0008392333984 C 83.73142242431641 134.6017608642578 83.76839447021484 133.1731872558594 83.76839447021484 131.7537078857422 C 83.76839447021484 92.29459381103516 55.68827819824219 58.84490585327148 17.0001106262207 52.21783447265625 L 17.0001106262207 46.99978637695312 C 17.0001106262207 43.69171524047852 14.30837345123291 41.00038146972656 10.99980163574219 41.00038146972656 L -7.888067557360046e-06 41.00038146972656 L -7.888067557360046e-06 -5.999403953552246 C -7.888067557360046e-06 -12.41021347045898 2.49661111831665 -18.43740463256836 7.02989673614502 -22.97066497802734 C 11.56263542175293 -27.50340461730957 17.58949279785156 -29.99966621398926 24.00030136108398 -29.99966621398926 L 141.9992980957031 -29.99966621398926 C 148.4098052978516 -29.99966621398926 154.4369964599609 -27.50340461730957 158.9706115722656 -22.97066497802734 C 163.5033264160156 -18.43711853027344 165.9996185302734 -12.40990352630615 165.9996185302734 -5.999403953552246 L 165.9996185302734 112.0005035400391 C 165.9996185302734 118.4113311767578 163.5033264160156 124.4382171630859 158.9706115722656 128.9709320068359 C 154.4372711181641 133.5042419433594 148.4100799560547 136.0008392333984 141.9992980957031 136.0008392333984 Z" stroke="none" fill="#fff"/>
    </g>
    <g id="Rectangle_33" data-name="Rectangle 33" transform="translate(1395 599)" fill="none" stroke="#fff" stroke-width="3">
      <path d="M0,0H48a0,0,0,0,1,0,0V46a6,6,0,0,1-6,6H6a6,6,0,0,1-6-6V0A0,0,0,0,1,0,0Z" stroke="none"/>
      <path d="M1.5,1.5h45a0,0,0,0,1,0,0V46A4.5,4.5,0,0,1,42,50.5H6A4.5,4.5,0,0,1,1.5,46V1.5A0,0,0,0,1,1.5,1.5Z" fill="none"/>
    </g>
    <g id="Rectangle_34" data-name="Rectangle 34" transform="translate(1398 762)" fill="none" stroke="#fff" stroke-width="3">
      <path d="M0,0H31a0,0,0,0,1,0,0V17a6,6,0,0,1-6,6H6a6,6,0,0,1-6-6V0A0,0,0,0,1,0,0Z" stroke="none"/>
      <path d="M1.5,1.5h28a0,0,0,0,1,0,0V17A4.5,4.5,0,0,1,25,21.5H6A4.5,4.5,0,0,1,1.5,17V1.5A0,0,0,0,1,1.5,1.5Z" fill="none"/>
    </g>
    <g id="Rectangle_35" data-name="Rectangle 35" transform="translate(1249 754)" fill="none" stroke="#fff" stroke-width="3">
      <rect width="30" height="30" rx="6" stroke="none"/>
      <rect x="1.5" y="1.5" width="27" height="27" rx="4.5" fill="none"/>
    </g>
    <g id="Rectangle_36" data-name="Rectangle 36" transform="translate(1254 667)" fill="none" stroke="#fff" stroke-width="3">
      <rect width="30" height="30" rx="6" stroke="none"/>
      <rect x="1.5" y="1.5" width="27" height="27" rx="4.5" fill="none"/>
    </g>
    <g id="Rectangle_45" data-name="Rectangle 45" transform="translate(1325 667)" fill="none" stroke="#fff" stroke-width="3">
      <rect width="30" height="30" rx="6" stroke="none"/>
      <rect x="1.5" y="1.5" width="27" height="27" rx="4.5" fill="none"/>
    </g>
    <g id="Rectangle_37" data-name="Rectangle 37" transform="translate(1398 667)" fill="none" stroke="#fff" stroke-width="3">
      <rect width="31" height="30" rx="6" stroke="none"/>
      <rect x="1.5" y="1.5" width="28" height="27" rx="4.5" fill="none"/>
    </g>
    <g id="Path_29" data-name="Path 29" transform="translate(1467.524 719.035)" fill="red">
      <path d="M 1.808358669281006 43.35878372192383 L 0.4999986290931702 43.35878372192383 L 0.4999986290931702 1.154181838035583 C 0.4999986290931702 0.7934618592262268 0.7934586405754089 0.500001847743988 1.154178619384766 0.500001847743988 C 1.514898657798767 0.500001847743988 1.808358669281006 0.7934618592262268 1.808358669281006 1.154181838035583 L 1.808358669281006 43.35878372192383 Z" stroke="none"/>
      <path d="M 1.154178619384766 1 C 1.069158673286438 1 0.9999985694885254 1.069160461425781 0.9999985694885254 1.154182434082031 L 0.9999985694885254 42.85877990722656 L 1.308358669281006 42.85877990722656 L 1.308358669281006 1.154182434082031 C 1.308358669281006 1.069160461425781 1.239198565483093 1 1.154178619384766 1 M 1.154178619384766 0 C 1.791618585586548 0 2.308358669281006 0.5167427062988281 2.308358669281006 1.154182434082031 L 2.308358669281006 43.85878372192383 L -1.430511474609375e-06 43.85878372192383 L -1.430511474609375e-06 1.154182434082031 C -1.430511474609375e-06 0.5167427062988281 0.5167386531829834 0 1.154178619384766 0 Z" stroke="none" fill="#fff"/>
    </g>
    <g id="Ellipse_13" data-name="Ellipse 13" transform="translate(1463 701)" fill="#fff" stroke="#fff" stroke-width="3">
      <circle cx="5" cy="5" r="5" stroke="none"/>
      <circle cx="5" cy="5" r="3.5" fill="none"/>
    </g>
    <path id="Path_30" data-name="Path 30" d="M1331.818,706c-9.629,2.58-60.325,16-62.351,72.841" transform="translate(-4.719 -24.669)" fill="none" stroke="#fff" stroke-width="3"/>
    <line id="Line_23" data-name="Line 23" x1="43.089" transform="translate(1283.241 680.947)" fill="none" stroke="#fff" stroke-width="3"/>
    <line id="Line_24" data-name="Line 24" x2="45.158" y2="0.447" transform="translate(1353.5 680.5)" fill="none" stroke="#fff" stroke-width="3"/>
    <path id="Path_31" data-name="Path 31" d="M1378.9,831.354c2.37-13.681,11.194-20.815,14.25-24.622,1.429-1.557,3.324-1.847,1.6-5.663s-24.53-46.536-34.472-62.049c-1.842-1.447-4.547-.831-5.8,0-1.724,1.847-25.382,44.1-33.843,60.818a4.821,4.821,0,0,0,0,6.033,49.354,49.354,0,0,1,15.389,25.484C1353.229,831.8,1366.305,830.815,1378.9,831.354Z" transform="translate(-17.039 -32.081)" fill="none" stroke="#fff" stroke-width="3"/>
    <g id="Rectangle_41" data-name="Rectangle 41" transform="translate(1339 707)" fill="#fff" stroke="#fff" stroke-width="1">
      <path d="M0,0H3A0,0,0,0,1,3,0V44.5A1.5,1.5,0,0,1,1.5,46h0A1.5,1.5,0,0,1,0,44.5V0A0,0,0,0,1,0,0Z" stroke="none"/>
      <path d="M.5.5h2a0,0,0,0,1,0,0v44a1,1,0,0,1-1,1h0a1,1,0,0,1-1-1V.5A0,0,0,0,1,.5.5Z" fill="none"/>
    </g>
    <g id="Ellipse_15" data-name="Ellipse 15" transform="translate(1337 764)" fill="#fff" stroke="#fff" stroke-width="1">
      <circle cx="4.5" cy="4.5" r="4.5" stroke="none"/>
      <circle cx="4.5" cy="4.5" r="4" fill="none"/>
    </g>
    <g id="Rectangle_42" data-name="Rectangle 42" transform="translate(1309 798)" fill="#fff" stroke="#fff" stroke-width="1">
      <rect width="64" height="3" rx="1.5" stroke="none"/>
      <rect x="0.5" y="0.5" width="63" height="2" rx="1" fill="none"/>
    </g>
    <g id="Rectangle_43" data-name="Rectangle 43" transform="translate(1313 801)" fill="#fff" stroke="#fff" stroke-width="1">
      <path d="M0,0H3A0,0,0,0,1,3,0V41.5A1.5,1.5,0,0,1,1.5,43h0A1.5,1.5,0,0,1,0,41.5V0A0,0,0,0,1,0,0Z" stroke="none"/>
      <path d="M.5.5h2a0,0,0,0,1,0,0v41a1,1,0,0,1-1,1h0a1,1,0,0,1-1-1V.5A0,0,0,0,1,.5.5Z" fill="none"/>
    </g>
    <g id="Rectangle_44" data-name="Rectangle 44" transform="translate(1366 801)" fill="#fff" stroke="#fff" stroke-width="1">
      <path d="M0,0H3A0,0,0,0,1,3,0V41.5A1.5,1.5,0,0,1,1.5,43h0A1.5,1.5,0,0,1,0,41.5V0A0,0,0,0,1,0,0Z" stroke="none"/>
      <path d="M.5.5h2a0,0,0,0,1,0,0v41a1,1,0,0,1-1,1h0a1,1,0,0,1-1-1V.5A0,0,0,0,1,.5.5Z" fill="none"/>
    </g>
  </g>
</svg>
