<svg xmlns="http://www.w3.org/2000/svg" width="274" height="212" viewBox="0 0 274 212">
  <g id="Group_19" data-name="Group 19" transform="translate(-1109 -549)">
    <g id="Rectangle_28" data-name="Rectangle 28" transform="translate(1109 549)" fill="none" stroke="#fff" stroke-width="3">
      <rect width="274" height="183" rx="6" stroke="none"/>
      <rect x="1.5" y="1.5" width="271" height="180" rx="4.5" fill="none"/>
    </g>
    <line id="Line_9" data-name="Line 9" x2="272" transform="translate(1109.5 571.5)" fill="none" stroke="#fff" stroke-width="3"/>
    <line id="Line_10" data-name="Line 10" x2="272" transform="translate(1109.5 699.5)" fill="none" stroke="#fff" stroke-width="3"/>
    <line id="Line_11" data-name="Line 11" x2="118" transform="translate(1187.5 759.5)" fill="none" stroke="#fff" stroke-width="3"/>
    <line id="Line_12" data-name="Line 12" y2="30" transform="translate(1219.5 729.5)" fill="none" stroke="#fff" stroke-width="3"/>
    <line id="Line_13" data-name="Line 13" y2="30" transform="translate(1272.5 729.5)" fill="none" stroke="#fff" stroke-width="3"/>
    <g id="Ellipse_10" data-name="Ellipse 10" transform="translate(1122 707)" fill="none" stroke="#fff" stroke-width="2">
      <circle cx="8" cy="8" r="8" stroke="none"/>
      <circle cx="8" cy="8" r="7" fill="none"/>
    </g>
    <g id="Ellipse_11" data-name="Ellipse 11" transform="translate(1144 707)" fill="none" stroke="#fff" stroke-width="2">
      <circle cx="8" cy="8" r="8" stroke="none"/>
      <circle cx="8" cy="8" r="7" fill="none"/>
    </g>
    <g id="Ellipse_12" data-name="Ellipse 12" transform="translate(1166 707)" fill="none" stroke="#fff" stroke-width="2">
      <circle cx="8" cy="8" r="8" stroke="none"/>
      <circle cx="8" cy="8" r="7" fill="none"/>
    </g>
    <path id="chevron-left" d="M41.9,71.8,9,38.9,41.9,6" transform="translate(1168.5 595.5)" fill="none" stroke="#fff" stroke-linecap="round" stroke-linejoin="round" stroke-width="3"/>
    <path id="chevron-left-2" data-name="chevron-left" d="M9,71.8,41.9,38.9,9,6" transform="translate(1257.5 595.5)" fill="none" stroke="#fff" stroke-linecap="round" stroke-linejoin="round" stroke-width="3"/>
    <line id="Line_14" data-name="Line 14" y1="90.4" x2="32" transform="translate(1222.5 588.8)" fill="none" stroke="#fff" stroke-width="3"/>
  </g>
</svg>
